<svg xmlns="http://www.w3.org/2000/svg" xmlns:xlink="http://www.w3.org/1999/xlink" width="1920" zoomAndPan="magnify" viewBox="0 0 1440 809.999993" height="1080" preserveAspectRatio="xMidYMid meet" version="1.0"><defs><g/></defs><rect x="-144" width="1728" fill="#ffffff" y="-80.999999" height="971.999992" fill-opacity="1"/><g fill="#1f3bfb" fill-opacity="1"><g transform="translate(655.135221, 553.260081)"><g><path d="M 52.625 -148.953125 C 52.625 -151.796875 55.046875 -154.21875 57.890625 -154.21875 L 70.84375 -154.21875 C 73.671875 -154.21875 76.09375 -156.65625 76.09375 -159.484375 L 76.09375 -187.40625 C 76.09375 -190.25 78.53125 -192.671875 81.359375 -192.671875 L 94.3125 -192.671875 C 97.140625 -192.671875 99.578125 -195.109375 99.578125 -197.9375 L 99.578125 -226.265625 C 99.578125 -229.109375 102 -231.53125 104.84375 -231.53125 L 117.796875 -231.53125 C 120.625 -231.53125 123.046875 -233.96875 123.046875 -236.796875 L 123.046875 -264.734375 C 123.046875 -267.5625 120.625 -269.984375 117.796875 -269.984375 L 81.359375 -269.984375 C 78.53125 -269.984375 76.09375 -267.5625 76.09375 -264.734375 L 76.09375 -236.796875 C 76.09375 -233.96875 73.671875 -231.53125 70.84375 -231.53125 L 57.890625 -231.53125 C 55.046875 -231.53125 52.625 -229.109375 52.625 -226.265625 L 52.625 -197.9375 C 52.625 -195.109375 50.1875 -192.671875 47.359375 -192.671875 L 34.40625 -192.671875 C 31.578125 -192.671875 29.140625 -190.25 29.140625 -187.40625 L 29.140625 -159.484375 C 29.140625 -156.65625 26.71875 -154.21875 23.875 -154.21875 L 10.921875 -154.21875 C 8.09375 -154.21875 5.671875 -151.796875 5.671875 -148.953125 L 5.671875 -120.625 C 5.671875 -117.796875 8.09375 -115.359375 10.921875 -115.359375 L 23.875 -115.359375 C 26.71875 -115.359375 29.140625 -112.9375 29.140625 -110.09375 L 29.140625 -82.171875 C 29.140625 -79.34375 31.578125 -76.90625 34.40625 -76.90625 L 47.359375 -76.90625 C 50.1875 -76.90625 52.625 -74.484375 52.625 -71.640625 L 52.625 -43.71875 C 52.625 -40.890625 55.046875 -38.453125 57.890625 -38.453125 L 70.84375 -38.453125 C 73.671875 -38.453125 76.09375 -36.03125 76.09375 -33.1875 L 76.09375 -5.265625 C 76.09375 -2.421875 78.53125 0 81.359375 0 L 117.796875 0 C 120.625 0 123.046875 -2.421875 123.046875 -5.265625 L 123.046875 -33.1875 C 123.046875 -36.03125 120.625 -38.453125 117.796875 -38.453125 L 104.84375 -38.453125 C 102 -38.453125 99.578125 -40.890625 99.578125 -43.71875 L 99.578125 -71.640625 C 99.578125 -74.484375 97.140625 -76.90625 94.3125 -76.90625 L 81.359375 -76.90625 C 78.53125 -76.90625 76.09375 -79.34375 76.09375 -82.171875 L 76.09375 -110.09375 C 76.09375 -112.9375 73.671875 -115.359375 70.84375 -115.359375 L 57.890625 -115.359375 C 55.046875 -115.359375 52.625 -117.796875 52.625 -120.625 Z M 52.625 -148.953125 "/></g></g></g></svg>