<svg xmlns="http://www.w3.org/2000/svg" xmlns:xlink="http://www.w3.org/1999/xlink" width="1440" zoomAndPan="magnify" viewBox="0 0 1080 1079.999946" height="1440" preserveAspectRatio="xMidYMid meet" version="1.0"><rect x="-108" width="1296" fill="#ffffff" y="-107.999995" height="1295.999935" fill-opacity="1"/><rect x="-108" width="1296" fill="#ffffff" y="-107.999995" height="1295.999935" fill-opacity="1"/><path fill="#1f3bfb" d="M 685.597656 0 L 540.007812 539.925781 L 685.632812 0 Z M 685.597656 0 " fill-opacity="1" fill-rule="nonzero"/><path fill="#1f3bfb" d="M 495.367188 0 L 540.007812 539.925781 L 495.398438 0 Z M 495.367188 0 " fill-opacity="1" fill-rule="nonzero"/><path fill="#1f3bfb" d="M 786.523438 0 L 540.007812 539.925781 L 786.5625 0 Z M 786.523438 0 " fill-opacity="1" fill-rule="nonzero"/><path fill="#1f3bfb" d="M 303.835938 0 L 540.007812 539.925781 L 303.871094 0 Z M 303.835938 0 " fill-opacity="1" fill-rule="nonzero"/><path fill="#1f3bfb" d="M 904.054688 0 L 540.007812 539.925781 L 904.097656 0 Z M 904.054688 0 " fill-opacity="1" fill-rule="nonzero"/><path fill="#1f3bfb" d="M 188.367188 0 L 540.007812 539.925781 L 188.417969 0 Z M 188.367188 0 " fill-opacity="1" fill-rule="nonzero"/><path fill="#1f3bfb" d="M 403.625 0 L 540.007812 539.925781 L 403.664062 0 Z M 403.625 0 " fill-opacity="1" fill-rule="nonzero"/><path fill="#1f3bfb" d="M 1080 256.882812 L 540.007812 539.925781 L 1080 256.921875 Z M 1080 256.882812 " fill-opacity="1" fill-rule="nonzero"/><path fill="#1f3bfb" d="M 1080 131.367188 L 540.007812 539.925781 L 1080 131.414062 Z M 1080 131.367188 " fill-opacity="1" fill-rule="nonzero"/><path fill="#1f3bfb" d="M 1080 636.5 L 1080 636.464844 L 540.007812 539.925781 Z M 1080 636.5 " fill-opacity="1" fill-rule="nonzero"/><path fill="#1f3bfb" d="M 1080 362.253906 L 540.007812 539.925781 L 1080 362.292969 Z M 1080 362.253906 " fill-opacity="1" fill-rule="nonzero"/><path fill="#1f3bfb" d="M 1080 456.6875 L 540.007812 539.925781 L 1080 456.722656 Z M 1080 456.6875 " fill-opacity="1" fill-rule="nonzero"/><path fill="#1f3bfb" d="M 1080 732.09375 L 1080 732.058594 L 540.007812 539.925781 Z M 1080 732.09375 " fill-opacity="1" fill-rule="nonzero"/><path fill="#1f3bfb" d="M 1080 969.273438 L 1080 969.222656 L 540.007812 539.925781 Z M 1080 969.273438 " fill-opacity="1" fill-rule="nonzero"/><path fill="#1f3bfb" d="M 1080 839.726562 L 1080 839.683594 L 540.007812 539.925781 Z M 1080 839.726562 " fill-opacity="1" fill-rule="nonzero"/><path fill="#1f3bfb" d="M 1080 546.398438 L 540.007812 539.925781 L 1080 546.429688 Z M 1080 546.398438 " fill-opacity="1" fill-rule="nonzero"/><path fill="#1f3bfb" d="M 1051.289062 0 L 540.007812 539.925781 L 1051.351562 0 Z M 1051.289062 0 " fill-opacity="1" fill-rule="nonzero"/><path fill="#1f3bfb" d="M 298.59375 1080 L 298.632812 1080 L 540.007812 539.925781 Z M 298.59375 1080 " fill-opacity="1" fill-rule="nonzero"/><path fill="#1f3bfb" d="M 671.796875 1080 L 671.832031 1080 L 540.007812 539.925781 Z M 671.796875 1080 " fill-opacity="1" fill-rule="nonzero"/><path fill="#1f3bfb" d="M 580.273438 1080 L 580.304688 1080 L 540.007812 539.925781 Z M 580.273438 1080 " fill-opacity="1" fill-rule="nonzero"/><path fill="#1f3bfb" d="M 771.070312 1080 L 771.105469 1080 L 540.007812 539.925781 Z M 771.070312 1080 " fill-opacity="1" fill-rule="nonzero"/><path fill="#1f3bfb" d="M 398.976562 1080 L 399.007812 1080 L 540.007812 539.925781 Z M 398.976562 1080 " fill-opacity="1" fill-rule="nonzero"/><path fill="#1f3bfb" d="M 182.078125 1080 L 182.125 1080 L 540.007812 539.925781 Z M 182.078125 1080 " fill-opacity="1" fill-rule="nonzero"/><path fill="#1f3bfb" d="M 1027.355469 1080 L 1027.414062 1080 L 540.007812 539.925781 Z M 1027.355469 1080 " fill-opacity="1" fill-rule="nonzero"/><path fill="#1f3bfb" d="M 490.996094 1080 L 491.023438 1080 L 540.007812 539.925781 Z M 490.996094 1080 " fill-opacity="1" fill-rule="nonzero"/><path fill="#1f3bfb" d="M 885.566406 1080 L 885.613281 1080 L 540.007812 539.925781 Z M 885.566406 1080 " fill-opacity="1" fill-rule="nonzero"/><path fill="#1f3bfb" d="M 0 352.613281 L 0 352.644531 L 540.007812 539.925781 Z M 0 352.613281 " fill-opacity="1" fill-rule="nonzero"/><path fill="#1f3bfb" d="M 0 447.808594 L 0 447.835938 L 540.007812 539.925781 Z M 0 447.808594 " fill-opacity="1" fill-rule="nonzero"/><path fill="#1f3bfb" d="M 0 828.46875 L 0 828.515625 L 540.007812 539.925781 Z M 0 828.46875 " fill-opacity="1" fill-rule="nonzero"/><path fill="#1f3bfb" d="M 0 537.742188 L 0 537.777344 L 540.007812 539.925781 Z M 0 537.742188 " fill-opacity="1" fill-rule="nonzero"/><path fill="#1f3bfb" d="M 0 722.367188 L 0 722.40625 L 540.007812 539.925781 Z M 0 722.367188 " fill-opacity="1" fill-rule="nonzero"/><path fill="#1f3bfb" d="M 0 627.558594 L 0 627.59375 L 540.007812 539.925781 Z M 0 627.558594 " fill-opacity="1" fill-rule="nonzero"/><path fill="#1f3bfb" d="M 0 117.582031 L 0 117.632812 L 540.007812 539.925781 Z M 0 117.582031 " fill-opacity="1" fill-rule="nonzero"/><path fill="#1f3bfb" d="M 0 955.285156 L 0 955.339844 L 540.007812 539.925781 Z M 0 955.285156 " fill-opacity="1" fill-rule="nonzero"/><path fill="#1f3bfb" d="M 0 245.75 L 0 245.792969 L 540.007812 539.925781 Z M 0 245.75 " fill-opacity="1" fill-rule="nonzero"/><path fill="#1f3bfb" d="M 44.890625 0 L 44.832031 0 L 540.007812 539.925781 Z M 44.890625 0 " fill-opacity="1" fill-rule="nonzero"/><path fill="#1f3bfb" d="M 36.664062 1080 L 36.726562 1080 L 540.007812 539.925781 Z M 36.664062 1080 " fill-opacity="1" fill-rule="nonzero"/><path fill="#1f3bfb" d="M 495.398438 0 L 540.007812 539.925781 L 584.613281 0 Z M 495.398438 0 " fill-opacity="1" fill-rule="nonzero"/><path fill="#1f3bfb" d="M 303.871094 0 L 540.007812 539.925781 L 403.625 0 Z M 303.871094 0 " fill-opacity="1" fill-rule="nonzero"/><path fill="#1f3bfb" d="M 685.632812 0 L 540.007812 539.925781 L 786.523438 0 Z M 685.632812 0 " fill-opacity="1" fill-rule="nonzero"/><path fill="#1f3bfb" d="M 1080 839.683594 L 1080 732.09375 L 540.007812 539.925781 Z M 1080 839.683594 " fill-opacity="1" fill-rule="nonzero"/><path fill="#1f3bfb" d="M 540.007812 539.925781 L 1080 636.464844 L 1080 546.429688 Z M 540.007812 539.925781 " fill-opacity="1" fill-rule="nonzero"/><path fill="#1f3bfb" d="M 1080 362.292969 L 540.007812 539.925781 L 1080 456.6875 Z M 1080 362.292969 " fill-opacity="1" fill-rule="nonzero"/><path fill="#1f3bfb" d="M 1080 131.414062 L 540.007812 539.925781 L 1080 256.882812 Z M 1080 131.414062 " fill-opacity="1" fill-rule="nonzero"/><path fill="#1f3bfb" d="M 904.097656 0 L 540.007812 539.925781 L 1051.289062 0 Z M 904.097656 0 " fill-opacity="1" fill-rule="nonzero"/><path fill="#1f3bfb" d="M 182.125 1080 L 298.59375 1080 L 540.007812 539.925781 Z M 182.125 1080 " fill-opacity="1" fill-rule="nonzero"/><path fill="#1f3bfb" d="M 399.007812 1080 L 490.996094 1080 L 540.007812 539.925781 Z M 399.007812 1080 " fill-opacity="1" fill-rule="nonzero"/><path fill="#1f3bfb" d="M 580.304688 1080 L 671.796875 1080 L 540.007812 539.925781 Z M 580.304688 1080 " fill-opacity="1" fill-rule="nonzero"/><path fill="#1f3bfb" d="M 771.105469 1080 L 885.566406 1080 L 540.007812 539.925781 Z M 771.105469 1080 " fill-opacity="1" fill-rule="nonzero"/><path fill="#1f3bfb" d="M 1080 969.273438 L 540.007812 539.925781 L 1027.414062 1080 L 1080 1080 L 1080 969.273438 " fill-opacity="1" fill-rule="nonzero"/><path fill="#1f3bfb" d="M 188.367188 0 L 44.890625 0 L 540.007812 539.925781 Z M 188.367188 0 " fill-opacity="1" fill-rule="nonzero"/><path fill="#1f3bfb" d="M 0 117.632812 L 0 245.75 L 540.007812 539.925781 Z M 0 117.632812 " fill-opacity="1" fill-rule="nonzero"/><path fill="#1f3bfb" d="M 0 352.644531 L 0 447.808594 L 540.007812 539.925781 Z M 0 352.644531 " fill-opacity="1" fill-rule="nonzero"/><path fill="#1f3bfb" d="M 0 537.777344 L 0 627.558594 L 540.007812 539.925781 Z M 0 537.777344 " fill-opacity="1" fill-rule="nonzero"/><path fill="#1f3bfb" d="M 0 722.40625 L 0 828.46875 L 540.007812 539.925781 Z M 0 722.40625 " fill-opacity="1" fill-rule="nonzero"/><path fill="#1f3bfb" d="M 0 955.339844 L 0 1080 L 36.664062 1080 L 540.007812 539.925781 L 0 955.339844 " fill-opacity="1" fill-rule="nonzero"/></svg>