<svg xmlns="http://www.w3.org/2000/svg" xmlns:xlink="http://www.w3.org/1999/xlink" width="1587" zoomAndPan="magnify" viewBox="0 0 1190.25 1683.749949" height="2245" preserveAspectRatio="xMidYMid meet" version="1.0"><defs><clipPath id="0479ff42d7"><path d="M 72 397 L 1150.257812 397 L 1150.257812 1474.605469 L 72 1474.605469 Z M 72 397 " clip-rule="nonzero"/></clipPath><clipPath id="e6bc3ec5a5"><path d="M 38.992188 363.335938 L 1116 363.335938 L 1116 1441 L 38.992188 1441 Z M 38.992188 363.335938 " clip-rule="nonzero"/></clipPath></defs><g clip-path="url(#0479ff42d7)"><path fill="#000000" d="M 1096.167969 881.980469 L 773.046875 881.980469 L 773.046875 828.125 L 826.902344 828.125 L 826.902344 774.273438 L 880.753906 774.273438 L 880.753906 720.417969 L 934.609375 720.417969 L 934.609375 666.566406 L 988.460938 666.566406 L 988.460938 558.859375 L 880.753906 558.859375 L 880.753906 612.710938 L 826.902344 612.710938 L 826.902344 666.566406 L 773.046875 666.566406 L 773.046875 720.417969 L 719.195312 720.417969 L 719.195312 774.273438 L 665.339844 774.273438 L 665.339844 397.296875 L 557.632812 397.296875 L 557.632812 774.273438 L 503.78125 774.273438 L 503.78125 720.417969 L 449.925781 720.417969 L 449.925781 666.566406 L 396.074219 666.566406 L 396.074219 612.710938 L 342.21875 612.710938 L 342.21875 558.859375 L 234.515625 558.859375 L 234.515625 666.566406 L 288.367188 666.566406 L 288.367188 720.417969 L 342.21875 720.417969 L 342.21875 774.273438 L 396.074219 774.273438 L 396.074219 828.125 L 449.925781 828.125 L 449.925781 881.980469 L 72.953125 881.980469 L 72.953125 989.6875 L 449.925781 989.6875 L 449.925781 1043.539062 L 396.074219 1043.539062 L 396.074219 1097.394531 L 342.21875 1097.394531 L 342.21875 1151.246094 L 288.367188 1151.246094 L 288.367188 1205.101562 L 234.515625 1205.101562 L 234.515625 1312.808594 L 342.21875 1312.808594 L 342.21875 1258.953125 L 396.074219 1258.953125 L 396.074219 1205.101562 L 449.925781 1205.101562 L 449.925781 1151.246094 L 503.78125 1151.246094 L 503.78125 1097.394531 L 557.632812 1097.394531 L 557.632812 1474.367188 L 665.339844 1474.367188 L 665.339844 1097.394531 L 719.195312 1097.394531 L 719.195312 1151.246094 L 773.046875 1151.246094 L 773.046875 1205.101562 L 826.902344 1205.101562 L 826.902344 1258.953125 L 880.753906 1258.953125 L 880.753906 1312.808594 L 988.460938 1312.808594 L 988.460938 1205.101562 L 934.609375 1205.101562 L 934.609375 1151.246094 L 880.753906 1151.246094 L 880.753906 1097.394531 L 826.902344 1097.394531 L 826.902344 1043.539062 L 773.046875 1043.539062 L 773.046875 989.6875 L 1150.023438 989.6875 L 1150.023438 881.980469 Z M 1096.167969 881.980469 " fill-opacity="1" fill-rule="nonzero"/></g><g clip-path="url(#e6bc3ec5a5)"><path fill="#2753e0" d="M 1062.050781 847.859375 L 738.929688 847.859375 L 738.929688 794.007812 L 792.78125 794.007812 L 792.78125 740.152344 L 846.636719 740.152344 L 846.636719 686.300781 L 900.488281 686.300781 L 900.488281 632.445312 L 954.34375 632.445312 L 954.34375 524.738281 L 846.636719 524.738281 L 846.636719 578.59375 L 792.78125 578.59375 L 792.78125 632.445312 L 738.929688 632.445312 L 738.929688 686.300781 L 685.074219 686.300781 L 685.074219 740.152344 L 631.222656 740.152344 L 631.222656 363.179688 L 523.515625 363.179688 L 523.515625 740.152344 L 469.660156 740.152344 L 469.660156 686.300781 L 415.808594 686.300781 L 415.808594 632.445312 L 361.953125 632.445312 L 361.953125 578.59375 L 308.101562 578.59375 L 308.101562 524.738281 L 200.394531 524.738281 L 200.394531 632.445312 L 254.246094 632.445312 L 254.246094 686.300781 L 308.101562 686.300781 L 308.101562 740.152344 L 361.953125 740.152344 L 361.953125 794.007812 L 415.808594 794.007812 L 415.808594 847.859375 L 38.832031 847.859375 L 38.832031 955.566406 L 415.808594 955.566406 L 415.808594 1009.421875 L 361.953125 1009.421875 L 361.953125 1063.273438 L 308.101562 1063.273438 L 308.101562 1117.128906 L 254.246094 1117.128906 L 254.246094 1170.980469 L 200.394531 1170.980469 L 200.394531 1278.6875 L 308.101562 1278.6875 L 308.101562 1224.832031 L 361.953125 1224.832031 L 361.953125 1170.980469 L 415.808594 1170.980469 L 415.808594 1117.128906 L 469.660156 1117.128906 L 469.660156 1063.273438 L 523.515625 1063.273438 L 523.515625 1440.246094 L 631.222656 1440.246094 L 631.222656 1063.273438 L 685.074219 1063.273438 L 685.074219 1117.128906 L 738.929688 1117.128906 L 738.929688 1170.980469 L 792.78125 1170.980469 L 792.78125 1224.832031 L 846.636719 1224.832031 L 846.636719 1278.6875 L 954.34375 1278.6875 L 954.34375 1170.980469 L 900.488281 1170.980469 L 900.488281 1117.128906 L 846.636719 1117.128906 L 846.636719 1063.273438 L 792.78125 1063.273438 L 792.78125 1009.421875 L 738.929688 1009.421875 L 738.929688 955.566406 L 1115.902344 955.566406 L 1115.902344 847.859375 Z M 1062.050781 847.859375 " fill-opacity="1" fill-rule="nonzero"/></g></svg>