<svg xmlns="http://www.w3.org/2000/svg" xmlns:xlink="http://www.w3.org/1999/xlink" width="1587" zoomAndPan="magnify" viewBox="0 0 1190.25 1683.749949" height="2245" preserveAspectRatio="xMidYMid meet" version="1.0"><path fill="#f1c86c" d="M 293.8125 765.507812 L 97.035156 474.207031 C 68.398438 431.816406 120.511719 381.632812 161.753906 411.882812 L 454.640625 626.714844 L 504.277344 434.398438 C 516.097656 388.609375 581.179688 388.859375 592.636719 434.738281 L 639.597656 622.691406 L 889.855469 457.707031 C 931 430.589844 979.921875 478.992188 953.28125 520.457031 L 798.425781 761.488281 L 1129.523438 823.460938 C 1179.855469 832.878906 1178.820312 905.371094 1128.242188 913.351562 L 790.386719 966.667969 L 880.578125 1132.121094 C 901.667969 1170.8125 861.105469 1213.960938 821.214844 1195.265625 L 659.703125 1119.550781 L 598.519531 1244.382812 C 581.761719 1278.578125 532.984375 1278.375 516.5 1244.050781 L 458.65625 1123.578125 L 104.277344 1383.605469 C 61.972656 1414.648438 9.363281 1361.375 40.886719 1319.421875 L 293.804688 982.765625 L 171.125 912.441406 C 140.28125 894.761719 140.636719 850.128906 171.757812 832.9375 L 293.804688 765.515625 Z M 293.8125 765.507812 " fill-opacity="1" fill-rule="nonzero"/><path fill="#000000" d="M 77.320312 1399.480469 C 75.316406 1399.480469 73.304688 1399.355469 71.285156 1399.105469 C 59.769531 1397.683594 48.738281 1392.144531 40.207031 1383.507812 C 31.679688 1374.875 26.273438 1363.769531 24.984375 1352.230469 C 23.546875 1339.328125 27.21875 1326.609375 35.605469 1315.441406 L 284.046875 984.765625 L 167.84375 918.15625 C 151.265625 908.652344 141.457031 891.5625 141.609375 872.445312 C 141.761719 853.332031 151.832031 836.394531 168.566406 827.15625 L 284.300781 763.226562 L 91.5625 477.902344 C 74.578125 452.765625 82.863281 426.214844 98.609375 411.054688 C 114.351562 395.894531 141.183594 388.628906 165.640625 406.566406 L 450.679688 615.644531 L 497.882812 432.753906 C 501.046875 420.488281 507.863281 410.3125 517.605469 403.332031 C 526.40625 397.015625 537.410156 393.570312 548.609375 393.605469 C 559.796875 393.648438 570.777344 397.1875 579.535156 403.574219 C 589.21875 410.632812 595.953125 420.863281 599.027344 433.148438 L 643.730469 612.078125 L 886.21875 452.210938 C 910.617188 436.128906 936.640625 443.875 951.609375 458.679688 C 966.582031 473.492188 974.613281 499.441406 958.8125 524.03125 L 809.25 756.816406 L 1130.71875 816.992188 C 1160.5625 822.582031 1173.605469 847.167969 1173.292969 869.050781 C 1172.980469 890.9375 1159.246094 915.144531 1129.253906 919.875 L 800.632812 971.734375 L 886.351562 1128.976562 C 897.347656 1149.15625 894.289062 1173.007812 878.554688 1189.742188 C 862.8125 1206.484375 839.210938 1210.996094 818.414062 1201.25 L 662.761719 1128.285156 L 604.433594 1247.300781 C 595.59375 1265.339844 577.652344 1276.515625 557.589844 1276.523438 C 557.515625 1276.523438 557.445312 1276.523438 557.375 1276.523438 C 537.222656 1276.4375 519.285156 1265.097656 510.554688 1246.925781 L 456.152344 1133.609375 L 108.171875 1388.9375 C 98.671875 1395.90625 88.113281 1399.503906 77.3125 1399.503906 Z M 134.863281 409.160156 C 123.960938 409.160156 114.289062 414.257812 107.753906 420.550781 C 96.847656 431.054688 88.925781 450.441406 102.488281 470.515625 L 303.304688 767.800781 L 174.941406 838.703125 C 162.441406 845.613281 154.90625 858.265625 154.796875 872.550781 C 154.683594 886.835938 162.011719 899.609375 174.40625 906.714844 L 303.558594 980.753906 L 46.152344 1323.375 C 32.179688 1341.972656 37.8125 1362.324219 49.585938 1374.25 C 61.355469 1386.175781 81.636719 1392.046875 100.378906 1378.289062 L 461.164062 1113.5625 L 522.441406 1241.199219 C 529.058594 1254.992188 542.140625 1263.257812 557.429688 1263.320312 C 557.488281 1263.320312 557.550781 1263.320312 557.605469 1263.320312 C 572.824219 1263.320312 585.894531 1255.164062 592.605469 1241.484375 L 656.636719 1110.832031 L 824.011719 1189.296875 C 842.882812 1198.140625 859.601562 1190.660156 868.960938 1180.699219 C 878.316406 1170.742188 884.761719 1153.585938 874.785156 1135.28125 L 780.113281 961.617188 L 1127.207031 906.839844 C 1151.15625 903.066406 1159.910156 884.019531 1160.125 868.859375 C 1160.339844 853.699219 1152.132812 834.410156 1128.304688 829.953125 L 787.578125 766.175781 L 947.734375 516.898438 C 960.351562 497.261719 952.71875 478.3125 942.347656 468.050781 C 931.976562 457.792969 912.957031 450.371094 893.476562 463.214844 L 635.457031 633.316406 L 586.242188 436.335938 C 580.808594 414.609375 562.550781 406.835938 548.566406 406.78125 C 548.515625 406.78125 548.46875 406.78125 548.421875 406.78125 C 534.449219 406.78125 516.238281 414.429688 510.660156 436.046875 L 458.59375 637.789062 L 157.863281 417.199219 C 150.03125 411.453125 142.175781 409.167969 134.871094 409.167969 Z M 134.863281 409.160156 " fill-opacity="1" fill-rule="nonzero"/><path fill="#ffffff" d="M 293.8125 725.984375 L 97.035156 434.683594 C 68.398438 392.292969 120.511719 342.109375 161.753906 372.359375 L 454.640625 587.191406 L 504.277344 394.875 C 516.097656 349.082031 581.179688 349.332031 592.636719 395.214844 L 639.597656 583.167969 L 889.855469 418.183594 C 931 391.066406 979.921875 439.46875 953.28125 480.933594 L 798.425781 721.964844 L 1129.523438 783.9375 C 1179.855469 793.355469 1178.820312 865.84375 1128.242188 873.828125 L 790.386719 927.144531 L 880.578125 1092.597656 C 901.667969 1131.289062 861.105469 1174.4375 821.214844 1155.742188 L 659.703125 1080.027344 L 598.519531 1204.859375 C 581.761719 1239.054688 532.984375 1238.851562 516.5 1204.527344 L 458.65625 1084.054688 L 104.277344 1344.082031 C 61.972656 1375.125 9.363281 1321.847656 40.886719 1279.894531 L 293.804688 943.242188 L 171.125 872.917969 C 140.28125 855.238281 140.636719 810.605469 171.757812 793.414062 L 293.804688 725.992188 Z M 293.8125 725.984375 " fill-opacity="1" fill-rule="nonzero"/><path fill="#000000" d="M 77.320312 1359.957031 C 75.316406 1359.957031 73.304688 1359.832031 71.285156 1359.582031 C 59.769531 1358.160156 48.738281 1352.621094 40.207031 1343.984375 C 31.679688 1335.351562 26.273438 1324.246094 24.984375 1312.707031 C 23.546875 1299.804688 27.21875 1287.085938 35.605469 1275.917969 L 284.046875 945.242188 L 167.84375 878.632812 C 151.265625 869.128906 141.457031 852.039062 141.609375 832.921875 C 141.761719 813.804688 151.832031 796.871094 168.566406 787.628906 L 284.300781 723.699219 L 91.5625 438.378906 C 74.578125 413.242188 82.863281 386.691406 98.609375 371.53125 C 114.351562 356.371094 141.183594 349.105469 165.640625 367.042969 L 450.679688 576.121094 L 497.882812 393.230469 C 501.046875 380.964844 507.863281 370.789062 517.605469 363.804688 C 526.40625 357.488281 537.410156 354.011719 548.609375 354.082031 C 559.796875 354.125 570.777344 357.664062 579.535156 364.050781 C 589.21875 371.109375 595.953125 381.339844 599.027344 393.625 L 643.730469 572.554688 L 886.21875 412.6875 C 910.617188 396.605469 936.640625 404.351562 951.609375 419.15625 C 966.582031 433.96875 974.613281 459.917969 958.8125 484.507812 L 809.25 717.292969 L 1130.71875 777.46875 C 1160.5625 783.054688 1173.605469 807.640625 1173.292969 829.527344 C 1172.980469 851.414062 1159.246094 875.617188 1129.253906 880.351562 L 800.632812 932.210938 L 886.351562 1089.453125 C 897.347656 1109.632812 894.289062 1133.484375 878.554688 1150.21875 C 862.8125 1166.960938 839.210938 1171.472656 818.414062 1161.726562 L 662.761719 1088.757812 L 604.433594 1207.777344 C 595.59375 1225.816406 577.652344 1236.992188 557.589844 1237 C 557.515625 1237 557.445312 1237 557.375 1237 C 537.222656 1236.914062 519.285156 1225.574219 510.554688 1207.402344 L 456.152344 1094.082031 L 108.171875 1349.414062 C 98.671875 1356.382812 88.113281 1359.976562 77.3125 1359.976562 Z M 134.863281 369.636719 C 123.960938 369.636719 114.289062 374.730469 107.753906 381.027344 C 96.847656 391.53125 88.925781 410.917969 102.488281 430.992188 L 303.304688 728.273438 L 174.941406 799.179688 C 162.441406 806.085938 154.90625 818.742188 154.796875 833.027344 C 154.683594 847.3125 162.011719 860.085938 174.40625 867.191406 L 303.558594 941.226562 L 46.152344 1283.851562 C 32.179688 1302.449219 37.8125 1322.800781 49.585938 1334.726562 C 61.355469 1346.652344 81.636719 1352.523438 100.378906 1338.765625 L 461.164062 1074.035156 L 522.441406 1201.675781 C 529.058594 1215.464844 542.140625 1223.734375 557.429688 1223.796875 C 557.488281 1223.796875 557.550781 1223.796875 557.605469 1223.796875 C 572.824219 1223.796875 585.894531 1215.640625 592.605469 1201.957031 L 656.636719 1071.308594 L 824.011719 1149.773438 C 842.882812 1158.617188 859.601562 1151.132812 868.960938 1141.171875 C 878.316406 1131.21875 884.761719 1114.0625 874.785156 1095.757812 L 780.113281 922.089844 L 1127.207031 867.316406 C 1151.15625 863.542969 1159.910156 844.492188 1160.125 829.335938 C 1160.339844 814.175781 1152.132812 794.882812 1128.304688 790.429688 L 787.578125 726.652344 L 947.734375 477.375 C 960.351562 457.738281 952.71875 438.785156 942.347656 428.527344 C 931.976562 418.269531 912.957031 410.847656 893.476562 423.6875 L 635.457031 593.792969 L 586.242188 396.8125 C 580.808594 375.085938 562.550781 367.3125 548.566406 367.257812 C 534.601562 367.1875 516.257812 374.835938 510.660156 396.515625 L 458.59375 598.257812 L 157.863281 377.667969 C 150.03125 371.921875 142.175781 369.636719 134.871094 369.636719 Z M 134.863281 369.636719 " fill-opacity="1" fill-rule="nonzero"/><path fill="#8599ba" d="M 388.800781 765.773438 L 163.648438 432.457031 L 494.136719 674.867188 L 556.023438 435.09375 L 615.269531 672.230469 L 897.042969 486.472656 L 719.292969 763.132812 L 1106.394531 835.59375 L 714.019531 897.519531 L 816.726562 1085.914062 L 628.433594 997.640625 L 561.289062 1134.65625 L 496.773438 1000.277344 L 101.761719 1290.121094 L 388.800781 908.054688 L 262.402344 835.59375 Z M 388.800781 765.773438 " fill-opacity="1" fill-rule="nonzero"/></svg>