<svg xmlns="http://www.w3.org/2000/svg" xmlns:xlink="http://www.w3.org/1999/xlink" width="1587" zoomAndPan="magnify" viewBox="0 0 1190.25 1683.749949" height="2245" preserveAspectRatio="xMidYMid meet" version="1.0"><path fill="#ffe5d4" d="M 1162.328125 866.613281 C 1153.933594 841.609375 1136.164062 822.273438 1113.121094 812.3125 C 1112.339844 808.601562 1111.363281 804.695312 1110.191406 800.984375 C 1100.820312 772.855469 1079.339844 751.957031 1052 743.363281 C 1051.414062 736.332031 1049.851562 729.300781 1047.707031 722.460938 C 1038.722656 695.703125 1018.609375 675.195312 993.03125 666.015625 C 992.25 660.351562 990.882812 654.488281 989.125 649.019531 C 984.828125 636.324219 977.996094 624.800781 969.207031 615.425781 L 1079.535156 414.828125 C 1094.179688 388.265625 1094.570312 356.230469 1080.707031 329.472656 C 1071.136719 310.914062 1055.515625 296.460938 1036.964844 288.257812 C 1035.402344 279.859375 1032.472656 271.65625 1028.375 263.84375 C 1017.242188 242.355469 998.300781 226.535156 975.652344 219.113281 C 974.675781 207.394531 971.355469 195.871094 965.691406 185.128906 C 955.148438 164.8125 937.574219 149.382812 916.484375 141.765625 C 915.117188 131.414062 911.992188 121.0625 907.113281 111.683594 C 893.246094 84.730469 866.886719 66.566406 836.816406 63.246094 L 523.796875 27.109375 C 484.746094 22.617188 447.449219 43.710938 431.046875 79.457031 L 97.722656 805.085938 C 85.613281 831.453125 86.980469 862.316406 101.238281 887.511719 C 111.78125 906.457031 128.964844 920.714844 148.882812 928.136719 C 150.445312 939.664062 153.960938 950.796875 159.816406 961.148438 C 171.144531 981.070312 189.5 995.914062 210.976562 1002.949219 C 212.148438 1015.839844 215.859375 1028.339844 222.304688 1039.667969 C 230.699219 1054.511719 243.003906 1066.429688 257.453125 1074.632812 L 111.390625 1357.070312 C 95.183594 1388.320312 103.96875 1426.605469 132.089844 1447.699219 C 141.265625 1454.535156 151.421875 1459.027344 161.964844 1460.980469 C 160.988281 1483.835938 171.144531 1506.6875 190.667969 1521.335938 C 201.019531 1529.148438 212.734375 1533.835938 224.84375 1535.398438 C 222.5 1559.816406 232.652344 1584.425781 253.15625 1600.050781 C 260.382812 1605.519531 268.386719 1609.429688 276.785156 1611.773438 C 277.761719 1632.476562 287.71875 1652.398438 305.488281 1665.679688 C 315.835938 1673.492188 327.945312 1678.378906 340.636719 1679.746094 C 361.726562 1682.089844 382.816406 1675.058594 398.242188 1660.601562 L 1138.699219 961.539062 C 1164.476562 936.734375 1173.652344 900.402344 1162.328125 866.613281 Z M 1162.328125 866.613281 " fill-opacity="1" fill-rule="nonzero"/><path fill="#431e15" d="M 1132.648438 876.378906 C 1125.226562 854.304688 1106.285156 838.875 1083.246094 836.140625 C 1084.222656 827.742188 1083.246094 819.148438 1080.511719 810.75 C 1073.089844 788.480469 1054.148438 773.050781 1030.71875 770.511719 L 1018.21875 769.144531 C 1021.929688 757.425781 1021.929688 744.730469 1017.828125 732.230469 C 1010.410156 709.960938 991.46875 694.53125 968.035156 691.992188 L 960.8125 691.210938 C 963.347656 680.664062 962.761719 669.53125 959.25 658.785156 C 953.976562 642.964844 942.847656 630.660156 928.589844 623.824219 L 1052 399.398438 C 1061.570312 382.011719 1061.765625 361.113281 1052.78125 343.339844 C 1043.605469 325.761719 1026.421875 313.84375 1006.894531 311.5 C 1008.261719 299.976562 1006.113281 288.257812 1000.644531 277.515625 C 991.46875 259.9375 974.285156 248.019531 954.5625 245.675781 L 942.066406 244.308594 C 946.75 229.464844 945.578125 213.058594 938.160156 198.996094 C 928.980469 181.414062 911.796875 169.5 892.074219 167.15625 L 884.851562 166.375 C 887.976562 152.703125 886.414062 138.25 879.773438 125.359375 C 870.597656 107.777344 853.414062 95.863281 833.691406 93.519531 L 520.285156 58.167969 C 494.703125 55.238281 470.296875 69.105469 459.554688 92.542969 L 126.230469 818.171875 C 118.226562 835.554688 119.203125 855.671875 128.378906 872.277344 C 137.753906 888.878906 154.546875 900.011719 173.484375 902.160156 L 180.90625 902.941406 C 177.585938 917.394531 179.539062 932.632812 186.960938 945.71875 C 196.332031 962.320312 213.125 973.453125 232.066406 975.601562 L 244.5625 976.96875 C 239.683594 992.59375 241.246094 1009.785156 249.445312 1024.238281 C 258.820312 1040.839844 275.613281 1051.972656 294.359375 1054.121094 C 293.773438 1059.394531 293.96875 1064.863281 294.75 1070.335938 L 139.117188 1371.523438 C 129.941406 1389.296875 134.824219 1410.785156 150.835938 1422.894531 C 166.847656 1435.003906 188.914062 1433.636719 203.363281 1419.964844 L 217.617188 1406.488281 L 197.699219 1444.964844 C 188.523438 1462.738281 193.402344 1484.226562 209.414062 1496.335938 C 225.429688 1508.445312 247.492188 1507.078125 261.941406 1493.40625 L 288.890625 1467.816406 L 260.1875 1523.484375 C 251.007812 1541.261719 255.890625 1562.746094 271.902344 1574.855469 C 285.960938 1585.597656 304.902344 1585.792969 319.15625 1576.222656 L 312.519531 1589.308594 C 303.339844 1607.082031 308.222656 1628.570312 324.234375 1640.679688 C 330.289062 1645.171875 337.121094 1647.90625 344.152344 1648.6875 C 355.671875 1650.054688 367.777344 1646.34375 376.761719 1637.75 L 1117.222656 938.6875 C 1134.015625 922.472656 1140.066406 898.644531 1132.648438 876.378906 Z M 1132.648438 876.378906 " fill-opacity="1" fill-rule="nonzero"/><path fill="#6e5643" d="M 1079.144531 870.128906 L 811.039062 839.65625 C 793.074219 837.703125 783.117188 817.976562 791.707031 802.351562 L 1022.125 382.988281 C 1030.71875 367.167969 1020.757812 347.636719 1002.792969 345.683594 L 689.777344 310.132812 C 678.84375 308.960938 668.492188 314.820312 663.808594 324.785156 L 330.484375 1050.214844 C 323.257812 1065.84375 333.410156 1084.007812 350.59375 1085.960938 L 560.117188 1109.789062 C 577.691406 1111.742188 587.847656 1130.882812 579.839844 1146.511719 L 342.785156 1604.933594 C 339.269531 1611.578125 347.863281 1618.023438 353.328125 1612.75 L 1093.789062 913.683594 C 1109.214844 898.839844 1100.429688 872.472656 1079.144531 870.128906 Z M 1079.144531 870.128906 " fill-opacity="1" fill-rule="nonzero"/><path fill="#d0502d" d="M 1026.8125 804.5 L 758.707031 774.027344 C 740.742188 772.074219 730.785156 752.347656 739.375 736.722656 L 969.792969 317.359375 C 978.386719 301.539062 968.425781 282.007812 950.460938 280.054688 L 637.445312 244.503906 C 626.511719 243.332031 616.160156 249.191406 611.476562 259.15625 L 278.34375 984.585938 C 271.121094 1000.214844 281.273438 1018.378906 298.457031 1020.332031 L 507.980469 1044.160156 C 525.554688 1046.113281 535.710938 1065.253906 527.703125 1080.882812 L 290.453125 1539.308594 C 286.9375 1545.949219 295.53125 1552.394531 300.996094 1547.121094 L 1041.457031 848.054688 C 1057.078125 833.210938 1048.292969 806.84375 1026.8125 804.5 Z M 1026.8125 804.5 " fill-opacity="1" fill-rule="nonzero"/><path fill="#7eb0a4" d="M 964.324219 725.78125 L 696.222656 695.3125 C 678.257812 693.359375 668.296875 673.632812 676.890625 658.003906 L 907.308594 238.644531 C 915.898438 222.824219 905.941406 203.292969 887.976562 201.339844 L 574.960938 165.789062 C 564.023438 164.617188 553.675781 170.476562 548.988281 180.4375 L 215.664062 906.066406 C 208.4375 921.691406 218.59375 939.859375 235.777344 941.8125 L 445.300781 965.640625 C 462.875 967.59375 473.027344 986.734375 465.023438 1002.363281 L 227.964844 1460.785156 C 224.453125 1467.425781 233.042969 1473.875 238.511719 1468.597656 L 978.972656 769.535156 C 994.398438 754.691406 985.804688 728.324219 964.324219 725.78125 Z M 964.324219 725.78125 " fill-opacity="1" fill-rule="nonzero"/><path fill="#ffb533" d="M 905.746094 652.339844 L 637.640625 621.871094 C 619.675781 619.917969 609.71875 600.191406 618.308594 584.5625 L 848.726562 165.203125 C 857.316406 149.382812 847.359375 129.851562 829.394531 127.898438 L 516.378906 92.152344 C 505.445312 90.980469 495.09375 96.839844 490.40625 106.800781 L 157.277344 832.429688 C 150.054688 848.054688 160.207031 866.222656 177.390625 868.175781 L 386.914062 892.003906 C 404.488281 893.957031 414.644531 913.097656 406.636719 928.722656 L 169.386719 1387.148438 C 165.871094 1393.789062 174.460938 1400.234375 179.929688 1394.960938 L 920.390625 695.898438 C 936.011719 681.054688 927.222656 654.683594 905.746094 652.339844 Z M 905.746094 652.339844 " fill-opacity="1" fill-rule="nonzero"/><path fill="#ffffff" d="M 546.253906 804.695312 L 336.730469 780.863281 C 319.546875 778.910156 309.394531 760.746094 316.617188 745.121094 L 610.890625 103.871094 L 507.003906 91.957031 C 496.070312 90.785156 485.722656 96.644531 481.035156 106.605469 L 147.90625 832.429688 C 140.679688 848.054688 150.835938 866.222656 168.019531 868.175781 L 377.542969 892.003906 C 395.117188 893.957031 405.269531 913.097656 397.265625 928.722656 L 160.011719 1387.148438 C 156.496094 1393.789062 165.089844 1400.234375 170.558594 1394.960938 L 383.59375 1193.777344 L 565.976562 841.21875 C 573.984375 825.59375 563.828125 806.648438 546.253906 804.695312 Z M 546.253906 804.695312 " fill-opacity="0.18" fill-rule="nonzero"/></svg>