<svg xmlns="http://www.w3.org/2000/svg" xmlns:xlink="http://www.w3.org/1999/xlink" width="1587" zoomAndPan="magnify" viewBox="0 0 1190.25 1683.749949" height="2245" preserveAspectRatio="xMidYMid meet" version="1.0"><defs><clipPath id="c37853f04e"><path d="M 41 669 L 1189 669 L 1189 1071.175781 L 41 1071.175781 Z M 41 669 " clip-rule="nonzero"/></clipPath><clipPath id="16c794fde0"><path d="M 0 611.828125 L 1148 611.828125 L 1148 1014 L 0 1014 Z M 0 611.828125 " clip-rule="nonzero"/></clipPath></defs><path fill="#f16150" d="M 115.769531 927.417969 L 122.25 927.417969 C 122.25 863.335938 174.175781 811.410156 238.257812 811.410156 C 243 811.410156 247.703125 811.703125 252.277344 812.253906 C 272.816406 732.5 345.199219 673.582031 431.347656 673.582031 C 490.261719 673.582031 542.78125 701.15625 576.621094 744.105469 C 593.519531 737.371094 611.945312 733.644531 631.257812 733.644531 C 655.863281 733.644531 679.074219 739.699219 699.488281 750.375 C 730.195312 720.597656 772.039062 702.257812 818.207031 702.257812 C 890.546875 702.257812 952.339844 747.324219 977.160156 810.859375 C 981.648438 810.347656 986.179688 810.054688 990.839844 810.054688 C 1055.257812 810.054688 1107.523438 862.277344 1107.523438 926.742188 C 1107.523438 926.953125 1107.523438 927.164062 1107.523438 927.417969 L 1114.34375 927.417969 C 1152.628906 927.417969 1183.929688 958.761719 1183.929688 997.007812 C 1183.929688 1035.300781 1152.585938 1066.597656 1114.34375 1066.597656 L 115.769531 1066.597656 C 77.484375 1066.597656 46.183594 1035.257812 46.183594 997.007812 C 46.183594 958.71875 77.527344 927.417969 115.769531 927.417969 Z M 115.769531 927.417969 " fill-opacity="1" fill-rule="evenodd"/><g clip-path="url(#c37853f04e)"><path fill="#221f20" d="M 115.769531 922.929688 L 117.847656 922.929688 C 118.988281 891.417969 132.246094 863.039062 153.042969 842.242188 C 174.855469 820.429688 204.96875 806.960938 238.214844 806.960938 C 240.542969 806.960938 242.957031 807.046875 245.457031 807.171875 C 246.601562 807.214844 247.746094 807.300781 248.886719 807.425781 C 259.984375 767.699219 283.703125 733.261719 315.425781 708.695312 C 347.445312 683.875 387.640625 669.136719 431.261719 669.136719 C 460.867188 669.136719 488.863281 675.914062 513.851562 688.027344 C 538.757812 700.140625 560.652344 717.507812 578.019531 738.769531 C 585.9375 735.804688 594.113281 733.515625 602.5 731.90625 C 611.816406 730.128906 621.429688 729.195312 631.214844 729.195312 C 643.667969 729.195312 655.820312 730.722656 667.425781 733.558594 C 678.355469 736.226562 688.773438 740.082031 698.640625 744.996094 C 714.183594 730.425781 732.398438 718.691406 752.472656 710.558594 C 772.761719 702.34375 794.953125 697.8125 818.164062 697.8125 C 854.714844 697.8125 888.683594 709.035156 916.761719 728.222656 C 944.757812 747.324219 966.910156 774.390625 979.996094 806.113281 C 981.222656 805.988281 982.453125 805.902344 983.722656 805.859375 C 986.179688 805.734375 988.550781 805.648438 990.796875 805.648438 C 1024.253906 805.648438 1054.539062 819.203125 1076.476562 841.140625 C 1097.570312 862.234375 1110.910156 891.078125 1111.929688 923.015625 L 1114.34375 923.015625 C 1134.714844 923.015625 1153.222656 931.359375 1166.648438 944.785156 C 1180.074219 958.210938 1188.417969 976.722656 1188.417969 997.09375 C 1188.417969 1017.46875 1180.074219 1035.976562 1166.648438 1049.402344 C 1153.222656 1062.828125 1134.714844 1071.175781 1114.34375 1071.175781 L 115.769531 1071.175781 C 95.398438 1071.175781 76.890625 1062.828125 63.464844 1049.402344 C 50.039062 1035.976562 41.695312 1017.46875 41.695312 997.09375 C 41.695312 976.722656 50.039062 958.210938 63.464844 944.785156 C 76.890625 931.359375 95.398438 922.929688 115.769531 922.929688 Z M 122.25 931.910156 L 115.769531 931.910156 C 97.855469 931.910156 81.589844 939.238281 69.773438 951.054688 C 57.957031 962.871094 50.632812 979.136719 50.632812 997.050781 C 50.632812 1014.96875 57.957031 1031.234375 69.773438 1043.050781 C 81.589844 1054.867188 97.855469 1062.195312 115.769531 1062.195312 L 1114.300781 1062.195312 C 1132.214844 1062.195312 1148.480469 1054.867188 1160.296875 1043.050781 C 1172.113281 1031.234375 1179.441406 1014.96875 1179.441406 997.050781 C 1179.441406 979.136719 1172.113281 962.871094 1160.296875 951.054688 C 1148.480469 939.238281 1132.214844 931.910156 1114.300781 931.910156 L 1107.480469 931.910156 L 1107.480469 931.867188 L 1107.4375 931.867188 C 1104.980469 931.824219 1102.992188 929.832031 1103.035156 927.335938 L 1103.035156 927.039062 C 1103.035156 926.910156 1102.992188 926.785156 1102.992188 926.699219 C 1102.992188 895.695312 1090.414062 867.65625 1070.125 847.367188 C 1049.835938 827.078125 1021.757812 814.5 990.796875 814.5 C 988.46875 814.5 986.265625 814.542969 984.230469 814.667969 C 982.070312 814.796875 979.867188 815.007812 977.625 815.261719 C 975.675781 815.472656 973.726562 814.375 972.964844 812.425781 C 960.726562 780.996094 939.167969 754.269531 911.765625 735.507812 C 885.125 717.292969 852.894531 706.664062 818.207031 706.664062 C 796.140625 706.664062 775.132812 710.941406 755.902344 718.734375 C 735.914062 726.824219 717.828125 738.726562 702.621094 753.464844 C 701.265625 754.777344 699.191406 755.117188 697.457031 754.230469 C 687.417969 748.976562 676.660156 744.867188 665.394531 742.113281 C 654.507812 739.445312 643.074219 738.050781 631.257812 738.050781 C 621.980469 738.050781 612.960938 738.9375 604.234375 740.589844 C 595.339844 742.285156 586.785156 744.785156 578.609375 748.042969 C 576.746094 748.976562 574.460938 748.46875 573.105469 746.773438 C 556.289062 725.425781 534.734375 707.976562 510.039062 695.988281 C 486.28125 684.46875 459.597656 677.988281 431.347656 677.988281 C 389.757812 677.988281 351.46875 692.050781 320.972656 715.683594 C 289.886719 739.785156 266.847656 773.796875 256.679688 812.976562 C 256.257812 815.304688 254.140625 816.914062 251.769531 816.617188 C 249.480469 816.320312 247.238281 816.109375 245.035156 815.984375 C 242.917969 815.855469 240.671875 815.769531 238.300781 815.769531 C 207.507812 815.769531 179.640625 828.265625 159.4375 848.425781 C 139.277344 868.589844 126.78125 896.457031 126.78125 927.292969 C 126.742188 929.875 124.75 931.910156 122.25 931.910156 Z M 122.25 931.910156 " fill-opacity="1" fill-rule="nonzero"/></g><path fill="#fec868" d="M 95.3125 898.746094 L 101.792969 898.746094 C 101.792969 834.703125 153.71875 782.734375 217.800781 782.734375 C 222.542969 782.734375 227.246094 783.03125 231.820312 783.582031 C 252.363281 703.824219 324.742188 644.910156 410.890625 644.910156 C 469.804688 644.910156 522.324219 672.484375 556.164062 715.429688 C 573.0625 708.695312 591.488281 704.96875 610.800781 704.96875 C 635.40625 704.96875 658.617188 711.027344 679.03125 721.699219 C 709.738281 691.921875 751.582031 673.582031 797.75 673.582031 C 870.089844 673.582031 931.925781 718.609375 956.703125 782.183594 C 961.191406 781.675781 965.722656 781.378906 970.382812 781.378906 C 1034.800781 781.378906 1087.066406 833.601562 1087.066406 898.066406 C 1087.066406 898.277344 1087.066406 898.535156 1087.066406 898.746094 L 1093.886719 898.746094 C 1132.171875 898.746094 1163.472656 930.089844 1163.472656 968.335938 C 1163.472656 1006.625 1132.128906 1037.925781 1093.886719 1037.925781 L 95.3125 1037.925781 C 57.027344 1037.925781 25.726562 1006.582031 25.726562 968.335938 C 25.726562 930.089844 57.027344 898.746094 95.3125 898.746094 Z M 95.3125 898.746094 " fill-opacity="1" fill-rule="evenodd"/><path fill="#221f20" d="M 95.3125 894.253906 L 97.390625 894.253906 C 98.53125 862.785156 111.789062 834.363281 132.585938 813.570312 C 154.398438 791.753906 184.511719 778.285156 217.757812 778.285156 C 220.089844 778.285156 222.503906 778.371094 225 778.5 C 226.144531 778.582031 227.289062 778.667969 228.429688 778.753906 C 239.527344 739.023438 263.246094 704.589844 294.96875 680.023438 C 326.988281 655.203125 367.183594 640.460938 410.804688 640.460938 C 440.410156 640.460938 468.40625 647.238281 493.394531 659.351562 C 518.300781 671.464844 540.195312 688.875 557.5625 710.09375 C 565.480469 707.128906 573.65625 704.84375 582.042969 703.234375 C 591.359375 701.453125 600.972656 700.523438 610.757812 700.523438 C 623.210938 700.523438 635.363281 702.046875 646.96875 704.882812 C 657.898438 707.554688 668.316406 711.40625 678.183594 716.320312 C 693.726562 701.75 711.941406 690.019531 732.015625 681.886719 C 752.304688 673.667969 774.496094 669.136719 797.707031 669.136719 C 834.257812 669.136719 868.226562 680.359375 896.304688 699.546875 C 924.300781 718.691406 946.453125 745.714844 959.539062 777.4375 C 960.769531 777.3125 961.996094 777.226562 963.222656 777.183594 L 963.308594 777.183594 C 965.722656 777.058594 968.09375 776.972656 970.296875 776.972656 C 1003.757812 776.972656 1034.039062 790.527344 1055.980469 812.46875 C 1077.070312 833.558594 1090.414062 862.402344 1091.429688 894.339844 L 1093.84375 894.339844 C 1114.214844 894.339844 1132.722656 902.683594 1146.148438 916.109375 C 1159.574219 929.539062 1167.917969 948.046875 1167.917969 968.417969 C 1167.917969 988.792969 1159.574219 1007.300781 1146.148438 1020.730469 C 1132.722656 1034.15625 1114.214844 1042.5 1093.84375 1042.5 L 95.3125 1042.5 C 74.941406 1042.5 56.433594 1034.15625 43.007812 1020.730469 C 29.582031 1007.300781 21.238281 988.792969 21.238281 968.417969 C 21.238281 948.046875 29.582031 929.539062 43.007812 916.109375 C 56.433594 902.683594 74.941406 894.253906 95.3125 894.253906 Z M 101.792969 903.234375 L 95.3125 903.234375 C 77.398438 903.234375 61.136719 910.5625 49.316406 922.378906 C 37.5 934.195312 30.175781 950.460938 30.175781 968.378906 C 30.175781 986.292969 37.5 1002.558594 49.316406 1014.375 C 61.136719 1026.191406 77.398438 1033.519531 95.3125 1033.519531 L 1093.84375 1033.519531 C 1111.757812 1033.519531 1128.023438 1026.191406 1139.839844 1014.375 C 1151.65625 1002.558594 1158.984375 986.292969 1158.984375 968.378906 C 1158.984375 950.460938 1151.65625 934.195312 1139.839844 922.378906 C 1128.023438 910.5625 1111.757812 903.234375 1093.84375 903.234375 L 1087.023438 903.234375 L 1087.023438 903.191406 L 1086.980469 903.191406 C 1084.523438 903.148438 1082.535156 901.160156 1082.578125 898.660156 L 1082.578125 898.363281 C 1082.578125 898.238281 1082.535156 898.152344 1082.535156 898.023438 C 1082.535156 867.019531 1069.996094 838.980469 1049.667969 818.695312 C 1029.378906 798.40625 1001.300781 785.824219 970.339844 785.824219 C 968.050781 785.824219 965.890625 785.867188 963.859375 785.996094 L 963.773438 785.996094 C 961.613281 786.121094 959.414062 786.332031 957.167969 786.589844 C 955.21875 786.800781 953.269531 785.699219 952.507812 783.75 C 940.269531 752.324219 918.710938 725.597656 891.308594 706.832031 C 864.667969 688.621094 832.4375 677.988281 797.75 677.988281 C 775.683594 677.988281 754.675781 682.265625 735.445312 690.058594 C 715.457031 698.148438 697.371094 710.050781 682.164062 724.792969 C 680.808594 726.105469 678.734375 726.445312 677 725.554688 C 666.960938 720.300781 656.203125 716.195312 644.9375 713.441406 C 634.050781 710.773438 622.617188 709.375 610.800781 709.375 C 601.523438 709.375 592.503906 710.265625 583.777344 711.914062 C 574.882812 713.609375 566.328125 716.109375 558.152344 719.371094 C 556.289062 720.300781 554.003906 719.792969 552.648438 718.140625 C 535.832031 696.792969 514.277344 679.34375 489.582031 667.359375 C 465.824219 655.835938 439.140625 649.355469 410.890625 649.355469 C 369.300781 649.355469 331.011719 663.417969 300.515625 687.054688 C 269.429688 711.152344 246.390625 745.164062 236.222656 784.34375 C 235.800781 786.671875 233.640625 788.28125 231.269531 787.984375 C 228.980469 787.6875 226.695312 787.476562 224.492188 787.351562 C 222.375 787.222656 220.128906 787.140625 217.757812 787.140625 C 186.96875 787.140625 159.097656 799.632812 138.894531 819.792969 C 118.691406 840 106.242188 867.867188 106.242188 898.660156 C 106.285156 901.242188 104.25 903.234375 101.792969 903.234375 Z M 101.792969 903.234375 " fill-opacity="1" fill-rule="nonzero"/><path fill="#fff6d9" d="M 74.859375 870.113281 L 81.335938 870.113281 C 81.335938 806.027344 133.261719 754.101562 197.34375 754.101562 C 202.085938 754.101562 206.789062 754.398438 211.363281 754.949219 C 231.90625 675.191406 304.285156 616.277344 390.433594 616.277344 C 449.390625 616.277344 501.867188 643.851562 535.707031 686.796875 C 552.605469 680.0625 571.03125 676.335938 590.34375 676.335938 C 614.949219 676.335938 638.160156 682.394531 658.574219 693.066406 C 689.28125 663.292969 731.125 644.953125 777.292969 644.953125 C 849.632812 644.953125 911.46875 689.976562 936.246094 753.550781 C 940.734375 753.042969 945.265625 752.746094 949.925781 752.746094 C 1014.34375 752.746094 1066.609375 804.96875 1066.609375 869.433594 C 1066.609375 869.648438 1066.609375 869.902344 1066.609375 870.113281 L 1073.429688 870.113281 C 1111.714844 870.113281 1143.015625 901.414062 1143.015625 939.703125 C 1143.015625 977.992188 1111.714844 1009.292969 1073.429688 1009.292969 L 74.859375 1009.292969 C 36.570312 1009.292969 5.269531 977.992188 5.269531 939.703125 C 5.269531 901.414062 36.570312 870.113281 74.859375 870.113281 Z M 74.859375 870.113281 " fill-opacity="1" fill-rule="evenodd"/><g clip-path="url(#16c794fde0)"><path fill="#221f20" d="M 74.859375 865.625 L 76.933594 865.625 C 78.078125 834.152344 91.332031 805.734375 112.128906 784.9375 C 133.941406 763.125 164.054688 749.652344 197.300781 749.652344 C 199.632812 749.652344 202.046875 749.738281 204.542969 749.867188 C 205.6875 749.949219 206.832031 750.035156 207.976562 750.121094 C 219.070312 710.390625 242.789062 675.957031 274.554688 651.390625 C 306.574219 626.570312 346.769531 611.828125 390.390625 611.828125 C 419.996094 611.828125 447.992188 618.605469 472.980469 630.761719 C 497.886719 642.832031 519.78125 660.242188 537.148438 681.503906 C 545.066406 678.539062 553.242188 676.253906 561.628906 674.644531 C 570.945312 672.863281 580.558594 671.933594 590.34375 671.933594 C 602.796875 671.933594 614.910156 673.457031 626.554688 676.292969 C 637.484375 678.964844 647.902344 682.816406 657.769531 687.730469 C 673.3125 673.160156 691.527344 661.429688 711.601562 653.296875 C 731.890625 645.078125 754.082031 640.546875 777.292969 640.546875 C 813.84375 640.546875 847.8125 651.769531 875.890625 670.957031 C 903.886719 690.101562 926.039062 717.125 939.125 748.847656 C 940.351562 748.765625 941.582031 748.636719 942.808594 748.59375 C 945.265625 748.46875 947.636719 748.382812 949.882812 748.382812 C 983.34375 748.382812 1013.625 761.9375 1035.5625 783.878906 C 1056.65625 804.96875 1069.996094 833.8125 1070.972656 865.75 L 1073.386719 865.75 C 1093.757812 865.75 1112.265625 874.09375 1125.691406 887.519531 C 1139.117188 900.949219 1147.460938 919.457031 1147.460938 939.828125 C 1147.460938 960.203125 1139.117188 978.710938 1125.691406 992.140625 C 1112.265625 1005.566406 1093.757812 1013.910156 1073.386719 1013.910156 L 74.859375 1013.910156 C 54.484375 1013.910156 35.976562 1005.566406 22.550781 992.140625 C 9.125 978.585938 0.78125 960.074219 0.78125 939.703125 C 0.78125 919.328125 9.125 900.820312 22.550781 887.394531 C 35.933594 873.925781 54.484375 865.625 74.859375 865.625 Z M 81.335938 874.601562 L 74.859375 874.601562 C 56.941406 874.601562 40.679688 881.929688 28.863281 893.746094 C 17.042969 905.5625 9.71875 921.828125 9.71875 939.746094 C 9.71875 957.660156 17.042969 973.925781 28.863281 985.742188 C 40.679688 997.558594 56.941406 1004.886719 74.859375 1004.886719 L 1073.386719 1004.886719 C 1091.300781 1004.886719 1107.566406 997.558594 1119.382812 985.742188 C 1131.199219 973.925781 1138.527344 957.660156 1138.527344 939.746094 C 1138.527344 921.828125 1131.199219 905.5625 1119.382812 893.746094 C 1107.566406 881.929688 1091.300781 874.601562 1073.386719 874.601562 L 1066.566406 874.601562 L 1066.566406 874.558594 L 1066.523438 874.558594 C 1064.066406 874.519531 1062.078125 872.527344 1062.121094 870.027344 L 1062.121094 869.730469 C 1062.121094 869.605469 1062.121094 869.519531 1062.121094 869.394531 C 1062.121094 838.429688 1049.539062 810.347656 1029.253906 790.0625 C 1008.964844 769.773438 980.886719 757.195312 949.925781 757.195312 C 947.597656 757.195312 945.4375 757.277344 943.359375 757.40625 C 941.199219 757.53125 938.996094 757.703125 936.753906 758 C 934.804688 758.210938 932.855469 757.109375 932.09375 755.160156 C 919.855469 723.773438 898.296875 697.007812 870.894531 678.242188 C 844.253906 660.074219 812.023438 649.398438 777.335938 649.398438 C 755.269531 649.398438 734.261719 653.675781 715.03125 661.46875 C 695.042969 669.558594 677 681.460938 661.75 696.203125 C 660.394531 697.515625 658.320312 697.855469 656.585938 696.964844 C 646.546875 691.710938 635.789062 687.605469 624.523438 684.851562 C 613.636719 682.183594 602.203125 680.785156 590.386719 680.785156 C 581.109375 680.785156 572.089844 681.671875 563.363281 683.324219 C 554.46875 685.019531 545.914062 687.519531 537.738281 690.78125 C 535.875 691.710938 533.589844 691.203125 532.277344 689.550781 C 515.417969 668.203125 493.863281 650.753906 469.210938 638.769531 C 445.453125 627.246094 418.769531 620.765625 390.519531 620.765625 C 348.925781 620.765625 310.640625 634.828125 280.144531 658.464844 C 249.058594 682.5625 226.015625 716.574219 215.851562 755.753906 C 215.429688 758.082031 213.269531 759.691406 210.898438 759.394531 C 208.609375 759.097656 206.367188 758.929688 204.164062 758.804688 C 202.046875 758.675781 199.800781 758.589844 197.429688 758.589844 C 166.636719 758.589844 138.769531 771.085938 118.566406 791.246094 C 98.363281 811.449219 85.910156 839.320312 85.910156 870.113281 C 85.785156 872.570312 83.792969 874.601562 81.335938 874.601562 Z M 81.335938 874.601562 " fill-opacity="1" fill-rule="nonzero"/></g><path fill="#221f20" d="M 119.371094 984.089844 C 116.914062 984.089844 114.882812 982.101562 114.882812 979.601562 C 114.882812 977.144531 116.914062 975.113281 119.371094 975.113281 L 240.839844 975.113281 C 243.296875 975.113281 245.332031 977.101562 245.332031 979.601562 C 245.332031 982.101562 243.339844 984.089844 240.839844 984.089844 Z M 119.371094 984.089844 " fill-opacity="1" fill-rule="nonzero"/><path fill="#221f20" d="M 180.785156 956.8125 C 178.285156 956.8125 176.292969 954.78125 176.292969 952.324219 C 176.292969 949.867188 178.285156 947.835938 180.785156 947.835938 L 302.210938 947.835938 C 304.667969 947.835938 306.699219 949.824219 306.699219 952.324219 C 306.699219 954.824219 304.710938 956.8125 302.210938 956.8125 Z M 180.785156 956.8125 " fill-opacity="1" fill-rule="nonzero"/><path fill="#221f20" d="M 273.539062 984.089844 C 271.082031 984.089844 269.046875 982.101562 269.046875 979.601562 C 269.046875 977.144531 271.039062 975.113281 273.539062 975.113281 L 500.765625 975.113281 C 503.222656 975.113281 505.253906 977.101562 505.253906 979.601562 C 505.253906 982.101562 503.265625 984.089844 500.765625 984.089844 Z M 273.539062 984.089844 " fill-opacity="1" fill-rule="nonzero"/></svg>