<svg xmlns="http://www.w3.org/2000/svg" xmlns:xlink="http://www.w3.org/1999/xlink" width="1587" zoomAndPan="magnify" viewBox="0 0 1190.25 1683.749949" height="2245" preserveAspectRatio="xMidYMid meet" version="1.0"><defs><clipPath id="82ea745d41"><path d="M 30 324 L 1159 324 L 1159 1437.453125 L 30 1437.453125 Z M 30 324 " clip-rule="nonzero"/></clipPath></defs><g clip-path="url(#82ea745d41)"><path fill="#000000" d="M 1141.8125 961.160156 L 1093.648438 948.746094 C 1099.625 945.367188 1103.46875 939.300781 1104.578125 933.023438 C 1106.367188 922.898438 1101.285156 910.875 1088.136719 907.476562 L 813.464844 836.707031 L 1086.8125 649.214844 C 1098.011719 641.523438 1098.675781 628.5 1093.523438 619.59375 C 1088.386719 610.683594 1076.757812 604.746094 1064.5 610.59375 L 888.664062 694.636719 L 1033.121094 595.550781 C 1044.320312 587.859375 1044.980469 574.835938 1039.828125 565.925781 C 1034.695312 557.019531 1023.066406 551.078125 1010.808594 556.929688 L 744.6875 684.117188 L 821.800781 406.984375 C 825.453125 393.890625 817.5625 383.496094 807.898438 379.972656 C 798.238281 376.449219 785.519531 379.363281 779.882812 391.726562 L 722.019531 518.949219 L 768.109375 353.300781 C 771.757812 340.207031 763.867188 329.8125 754.207031 326.289062 C 744.546875 322.765625 731.824219 325.679688 726.1875 338.039062 L 582.429688 654.171875 L 463.128906 391.761719 C 457.511719 379.398438 444.769531 376.484375 435.109375 380.007812 C 433.230469 380.6875 431.441406 381.636719 429.777344 382.796875 L 409.453125 338.09375 C 403.835938 325.734375 391.097656 322.816406 381.433594 326.339844 C 371.773438 329.867188 363.902344 340.257812 367.535156 353.355469 L 470.105469 721.96875 L 124.867188 556.945312 C 112.613281 551.078125 100.984375 557.035156 95.847656 565.945312 C 90.714844 574.851562 91.359375 587.875 102.558594 595.566406 L 147.019531 626.070312 C 145.210938 634.066406 147.519531 643.257812 156.234375 649.234375 L 400.257812 816.621094 L 47.558594 907.496094 C 34.410156 910.894531 29.328125 922.914062 31.117188 933.039062 C 32.90625 943.164062 41.761719 952.71875 55.304688 951.410156 L 189.761719 938.351562 L 101.234375 961.160156 C 88.082031 964.558594 83.003906 976.582031 84.792969 986.707031 C 86.582031 996.832031 95.4375 1006.382812 108.980469 1005.078125 L 390.972656 977.691406 L 213.699219 1225.71875 C 205.792969 1236.773438 209.640625 1249.242188 217.53125 1255.859375 C 225.402344 1262.480469 238.355469 1264.089844 247.875 1254.394531 L 385.496094 1114.128906 L 267.375 1279.386719 C 259.46875 1290.441406 263.316406 1302.910156 271.203125 1309.527344 C 279.078125 1316.144531 292.03125 1317.757812 301.550781 1308.0625 L 523.671875 1081.660156 L 545.554688 1362.710938 C 546.609375 1376.253906 557.578125 1383.335938 567.847656 1383.335938 C 578.117188 1383.335938 589.101562 1376.253906 590.140625 1362.710938 L 592.59375 1331.261719 L 599.210938 1416.378906 C 600.269531 1429.917969 611.234375 1437.003906 621.503906 1437.003906 C 631.773438 1437.003906 642.761719 1429.917969 643.796875 1416.378906 L 673.425781 1035.882812 L 887.820312 1254.375 C 889.289062 1255.878906 890.84375 1257.058594 892.4375 1258.042969 L 941.496094 1308.042969 C 951.015625 1317.738281 963.96875 1316.128906 971.839844 1309.507812 C 979.714844 1302.910156 983.558594 1290.421875 975.667969 1279.367188 L 753.1875 968.066406 L 1134.066406 1005.058594 C 1147.589844 1006.367188 1156.464844 996.8125 1158.253906 986.6875 C 1160.042969 976.5625 1154.960938 964.542969 1141.8125 961.144531 Z M 567.847656 1369.027344 C 566.59375 1369.027344 560.371094 1368.667969 559.816406 1361.601562 L 528.898438 964.453125 C 528.683594 961.664062 526.839844 959.246094 524.210938 958.28125 C 523.40625 957.996094 522.582031 957.851562 521.757812 957.851562 C 519.863281 957.851562 518.019531 958.601562 516.640625 960 L 237.621094 1244.359375 C 232.648438 1249.421875 227.636719 1245.683594 226.691406 1244.894531 C 225.742188 1244.089844 221.199219 1239.816406 225.3125 1234.035156 L 456.957031 909.929688 C 458.582031 907.636719 458.726562 904.613281 457.332031 902.183594 C 455.9375 899.75 453.234375 898.371094 450.441406 898.640625 L 53.910156 937.171875 C 46.84375 937.871094 45.414062 931.789062 45.199219 930.554688 C 44.984375 929.335938 44.25 923.128906 51.121094 921.359375 L 436.933594 821.949219 C 439.65625 821.253906 441.710938 819.035156 442.195312 816.261719 C 442.679688 813.507812 441.515625 810.699219 439.1875 809.125 L 110.664062 583.761719 C 104.8125 579.753906 107.621094 574.171875 108.246094 573.101562 C 108.875 572.027344 112.292969 566.804688 118.695312 569.863281 L 478.15625 741.664062 C 480.699219 742.882812 483.703125 742.488281 485.851562 740.699219 C 487.996094 738.894531 488.890625 736.011719 488.140625 733.292969 L 381.328125 349.507812 C 379.429688 342.675781 385.15625 340.207031 386.335938 339.777344 C 387.5 339.347656 393.492188 337.558594 396.429688 344.015625 L 561.335938 706.640625 C 562.5 709.199219 565.039062 710.824219 567.847656 710.824219 C 570.65625 710.824219 573.199219 709.179688 574.359375 706.640625 L 739.269531 344.015625 C 742.203125 337.558594 748.175781 339.347656 749.359375 339.777344 C 750.523438 340.207031 756.265625 342.675781 754.367188 349.507812 L 647.574219 733.277344 C 646.820312 735.976562 647.714844 738.875 649.863281 740.683594 C 652.011719 742.488281 655.015625 742.863281 657.554688 741.648438 L 1017.015625 569.84375 C 1023.421875 566.785156 1026.839844 572.007812 1027.464844 573.082031 C 1028.09375 574.15625 1030.902344 579.738281 1025.050781 583.742188 L 696.507812 809.089844 C 694.199219 810.679688 693.019531 813.472656 693.5 816.226562 C 693.984375 818.980469 696.042969 821.21875 698.761719 821.914062 L 1084.578125 921.324219 C 1091.445312 923.09375 1090.714844 929.300781 1090.5 930.519531 C 1090.285156 931.734375 1088.851562 937.835938 1081.785156 937.136719 L 685.234375 898.621094 C 682.445312 898.355469 679.742188 899.730469 678.347656 902.164062 C 676.953125 904.597656 677.09375 907.621094 678.722656 909.910156 L 910.367188 1234.019531 C 914.480469 1239.796875 909.9375 1244.074219 908.988281 1244.878906 C 908.039062 1245.683594 903.03125 1249.402344 898.054688 1244.339844 L 619.035156 959.980469 C 617.066406 957.976562 614.117188 957.316406 611.484375 958.261719 C 608.855469 959.230469 607.011719 961.625 606.796875 964.433594 L 575.882812 1361.585938 C 575.328125 1368.648438 569.101562 1369.007812 567.847656 1369.007812 Z M 567.847656 1369.027344 " fill-opacity="1" fill-rule="nonzero"/></g><path fill="#f4c811" d="M 575.882812 1361.601562 C 575.328125 1368.667969 569.101562 1369.027344 567.847656 1369.027344 C 566.59375 1369.027344 560.371094 1368.667969 559.816406 1361.601562 L 528.898438 964.453125 C 528.683594 961.664062 526.839844 959.246094 524.210938 958.28125 C 523.40625 957.996094 522.582031 957.851562 521.757812 957.851562 C 519.863281 957.851562 518.019531 958.601562 516.640625 960 L 237.621094 1244.359375 C 232.648438 1249.421875 227.636719 1245.683594 226.691406 1244.894531 C 225.742188 1244.089844 221.199219 1239.816406 225.3125 1234.035156 L 456.957031 909.929688 C 458.582031 907.636719 458.726562 904.613281 457.332031 902.183594 C 455.9375 899.75 453.234375 898.371094 450.441406 898.640625 L 53.910156 937.171875 C 46.84375 937.871094 45.414062 931.789062 45.199219 930.554688 C 44.984375 929.335938 44.25 923.128906 51.121094 921.359375 L 436.933594 821.949219 C 439.65625 821.253906 441.710938 819.035156 442.195312 816.261719 C 442.679688 813.507812 441.515625 810.699219 439.1875 809.125 L 110.664062 583.761719 C 104.8125 579.753906 107.621094 574.171875 108.246094 573.101562 C 108.875 572.027344 112.292969 566.804688 118.695312 569.863281 L 478.15625 741.664062 C 480.699219 742.882812 483.703125 742.488281 485.851562 740.699219 C 487.996094 738.894531 488.890625 736.011719 488.140625 733.292969 L 381.328125 349.507812 C 379.429688 342.675781 385.15625 340.207031 386.335938 339.777344 C 387.5 339.347656 393.492188 337.558594 396.429688 344.015625 L 561.335938 706.640625 C 562.5 709.199219 565.039062 710.824219 567.847656 710.824219 C 570.65625 710.824219 573.199219 709.179688 574.359375 706.640625 L 739.269531 344.015625 C 742.203125 337.558594 748.175781 339.347656 749.359375 339.777344 C 750.523438 340.207031 756.265625 342.675781 754.367188 349.507812 L 647.574219 733.277344 C 646.820312 735.976562 647.714844 738.875 649.863281 740.683594 C 652.011719 742.488281 655.015625 742.863281 657.554688 741.648438 L 1017.015625 569.84375 C 1023.421875 566.785156 1026.839844 572.007812 1027.464844 573.082031 C 1028.09375 574.15625 1030.902344 579.738281 1025.050781 583.742188 L 696.507812 809.089844 C 694.199219 810.679688 693.019531 813.472656 693.5 816.226562 C 693.984375 818.980469 696.042969 821.21875 698.761719 821.914062 L 1084.578125 921.324219 C 1091.445312 923.09375 1090.714844 929.300781 1090.5 930.519531 C 1090.285156 931.734375 1088.851562 937.835938 1081.785156 937.136719 L 685.234375 898.621094 C 682.445312 898.355469 679.742188 899.730469 678.347656 902.164062 C 676.953125 904.597656 677.09375 907.621094 678.722656 909.910156 L 910.367188 1234.019531 C 914.480469 1239.796875 909.9375 1244.074219 908.988281 1244.878906 C 908.039062 1245.683594 903.03125 1249.402344 898.054688 1244.339844 L 619.035156 959.980469 C 617.066406 957.976562 614.117188 957.316406 611.484375 958.261719 C 608.855469 959.230469 607.011719 961.625 606.796875 964.433594 L 575.882812 1361.585938 Z M 575.882812 1361.601562 " fill-opacity="1" fill-rule="nonzero"/></svg>