<svg xmlns="http://www.w3.org/2000/svg" xmlns:xlink="http://www.w3.org/1999/xlink" width="1587" zoomAndPan="magnify" viewBox="0 0 1190.25 1683.749949" height="2245" preserveAspectRatio="xMidYMid meet" version="1.0"><defs><clipPath id="af7cdd6cf0"><path d="M 336.664062 98.078125 L 901.664062 98.078125 L 901.664062 1584.761719 L 336.664062 1584.761719 Z M 336.664062 98.078125 " clip-rule="nonzero"/></clipPath><clipPath id="01a2202c07"><path d="M 336.664062 254 L 784 254 L 784 1429 L 336.664062 1429 Z M 336.664062 254 " clip-rule="nonzero"/></clipPath><clipPath id="a28997157a"><path d="M 336.664062 448 L 638 448 L 638 1235 L 336.664062 1235 Z M 336.664062 448 " clip-rule="nonzero"/></clipPath></defs><path fill="#f16150" d="M 484.734375 205.503906 C 490.25 205.027344 495.816406 204.867188 501.492188 204.867188 C 605.960938 204.867188 692.503906 281.484375 708.042969 381.59375 C 815.640625 403.230469 896.667969 498.300781 896.667969 612.304688 C 896.667969 715.539062 830.222656 803.1875 737.738281 834.949219 C 738.269531 840.890625 738.585938 846.882812 738.585938 852.925781 C 738.585938 873.550781 735.300781 893.488281 729.253906 912.101562 C 822.90625 946.832031 889.667969 1036.972656 889.667969 1142.703125 C 889.667969 1278.496094 779.578125 1388.574219 643.769531 1388.574219 C 612.640625 1388.574219 582.890625 1382.792969 555.476562 1372.242188 C 542.003906 1392.550781 524.769531 1410.15625 504.832031 1424.101562 C 500.90625 1510.847656 429.371094 1579.992188 341.660156 1579.992188 L 341.660156 103.007812 C 408.105469 103.007812 464.527344 145.902344 484.734375 205.503906 Z M 484.734375 205.503906 " fill-opacity="1" fill-rule="evenodd"/><g clip-path="url(#af7cdd6cf0)"><path fill="#221f20" d="M 488.128906 200.359375 C 489.664062 200.253906 491.257812 200.199219 492.898438 200.09375 C 496.027344 199.988281 498.894531 199.933594 501.492188 199.933594 C 554.574219 199.933594 603.097656 219.289062 640.480469 251.261719 C 677.601562 283.023438 703.695312 327.246094 712.285156 377.511719 C 766.324219 389.179688 813.625 419.03125 847.40625 460.335938 C 881.238281 501.746094 901.601562 554.664062 901.601562 612.304688 C 901.601562 664.265625 885.054688 712.359375 857.003906 751.703125 C 828.898438 791.101562 789.230469 821.589844 742.9375 838.34375 C 743.042969 840.148438 743.203125 841.898438 743.253906 843.648438 C 743.414062 846.933594 743.519531 850.007812 743.519531 852.925781 C 743.519531 863.320312 742.671875 873.550781 741.082031 883.679688 C 739.703125 892.429688 737.738281 900.914062 735.300781 909.132812 C 781.859375 927.371094 821.632812 959.1875 849.792969 999.644531 C 878.003906 1040.207031 894.546875 1089.519531 894.546875 1142.648438 C 894.546875 1211.898438 866.496094 1274.625 821.101562 1319.960938 C 775.707031 1365.351562 713.027344 1393.398438 643.769531 1393.398438 C 628.125 1393.398438 612.800781 1391.96875 597.898438 1389.210938 C 584.003906 1386.613281 570.429688 1382.902344 557.382812 1378.128906 C 551.019531 1387.300781 543.914062 1395.945312 536.121094 1403.898438 C 528.007812 1412.222656 519.097656 1419.859375 509.605469 1426.644531 C 507.007812 1470.445312 487.648438 1509.789062 457.847656 1538.207031 C 427.621094 1567.054688 386.734375 1584.761719 341.660156 1584.761719 C 338.953125 1584.761719 336.726562 1582.589844 336.726562 1579.832031 L 336.726562 103.007812 C 336.726562 100.304688 338.953125 98.078125 341.660156 98.078125 C 375.492188 98.078125 406.832031 108.894531 432.394531 127.1875 C 457.636719 145.269531 477.257812 170.71875 488.128906 200.359375 Z M 493.269531 209.902344 C 490.726562 210.011719 488.019531 210.167969 485.105469 210.382812 C 482.929688 210.539062 480.808594 209.214844 480.066406 207.039062 C 470.152344 177.878906 451.273438 152.796875 426.664062 135.191406 C 403.96875 118.914062 376.394531 109 346.589844 107.992188 L 346.589844 1574.953125 C 387.105469 1573.734375 423.75 1557.296875 451.058594 1531.207031 C 479.644531 1503.902344 497.992188 1466.042969 499.898438 1423.886719 C 499.953125 1422.402344 500.695312 1420.972656 501.96875 1420.070312 C 511.671875 1413.285156 520.742188 1405.59375 529.011719 1397.109375 C 537.285156 1388.628906 544.761719 1379.402344 551.339844 1369.484375 C 552.613281 1367.628906 555 1366.78125 557.171875 1367.628906 C 570.75 1372.878906 584.90625 1376.910156 599.597656 1379.613281 C 613.808594 1382.265625 628.605469 1383.644531 643.71875 1383.644531 C 710.269531 1383.644531 770.511719 1356.652344 814.101562 1313.066406 C 857.691406 1269.484375 884.683594 1209.246094 884.683594 1142.703125 C 884.683594 1091.640625 868.777344 1044.289062 841.675781 1005.316406 C 813.785156 965.230469 774.011719 934 727.503906 916.765625 C 725.066406 915.867188 723.738281 913.160156 724.535156 910.617188 C 727.503906 901.390625 729.835938 891.898438 731.375 882.195312 C 732.859375 872.757812 733.65625 862.949219 733.65625 852.925781 C 733.65625 849.746094 733.601562 846.828125 733.445312 844.125 C 733.285156 841.261719 733.125 838.503906 732.859375 835.800781 C 732.4375 833.464844 733.816406 831.082031 736.09375 830.335938 C 781.964844 814.589844 821.3125 784.789062 848.941406 746.082031 C 875.828125 708.382812 891.683594 662.25 891.683594 612.355469 C 891.683594 557.050781 872.222656 506.308594 839.714844 466.644531 C 806.679688 426.242188 760.171875 397.238281 707.085938 386.527344 C 705.074219 386.15625 703.429688 384.566406 703.109375 382.445312 C 695.472656 333.238281 670.230469 289.8125 634.066406 258.84375 C 598.429688 228.355469 552.082031 209.902344 501.4375 209.902344 C 498.46875 209.796875 495.765625 209.796875 493.269531 209.902344 Z M 493.269531 209.902344 " fill-opacity="1" fill-rule="nonzero"/></g><path fill="#fec868" d="M 454.402344 340.34375 C 458.75 339.972656 463.152344 339.8125 467.605469 339.8125 C 549.90625 339.8125 618.15625 400.207031 630.355469 479.105469 C 715.148438 496.179688 778.996094 571.101562 778.996094 660.871094 C 778.996094 742.210938 726.601562 811.300781 653.738281 836.328125 C 654.164062 840.996094 654.429688 845.714844 654.429688 850.488281 C 654.429688 866.765625 651.832031 882.40625 647.058594 897.09375 C 720.875 924.457031 773.429688 995.507812 773.429688 1078.808594 C 773.429688 1185.8125 686.671875 1272.558594 579.65625 1272.558594 C 555.15625 1272.558594 531.664062 1267.996094 510.082031 1259.671875 C 499.476562 1275.6875 485.902344 1289.578125 470.152344 1300.554688 C 467.074219 1368.902344 410.703125 1423.359375 341.605469 1423.359375 L 341.605469 259.585938 C 394 259.585938 438.492188 293.363281 454.402344 340.34375 Z M 454.402344 340.34375 " fill-opacity="1" fill-rule="evenodd"/><g clip-path="url(#01a2202c07)"><path fill="#221f20" d="M 457.792969 335.199219 C 458.75 335.148438 459.757812 335.09375 460.816406 335.039062 C 463.363281 334.933594 465.589844 334.882812 467.605469 334.882812 C 509.65625 334.882812 548.15625 350.207031 577.855469 375.605469 C 607.074219 400.632812 627.753906 435.414062 634.648438 474.972656 C 677.179688 484.355469 714.40625 507.898438 741.027344 540.457031 C 767.859375 573.277344 783.929688 615.167969 783.929688 660.871094 C 783.929688 702.019531 770.828125 740.144531 748.609375 771.320312 C 726.496094 802.339844 695.316406 826.359375 658.988281 839.671875 C 659.042969 840.835938 659.148438 841.949219 659.203125 843.117188 C 659.308594 845.769531 659.359375 848.207031 659.359375 850.488281 C 659.359375 858.707031 658.726562 866.871094 657.453125 874.878906 C 656.390625 881.453125 654.960938 887.921875 653.15625 894.179688 C 689.640625 908.707031 720.824219 933.734375 742.9375 965.550781 C 765.316406 997.679688 778.414062 1036.707031 778.414062 1078.808594 C 778.414062 1133.6875 756.195312 1183.320312 720.238281 1219.269531 C 684.285156 1255.21875 634.597656 1277.4375 579.761719 1277.4375 C 567.40625 1277.4375 555.261719 1276.269531 543.4375 1274.09375 C 532.671875 1272.082031 522.226562 1269.21875 512.097656 1265.558594 C 507.164062 1272.609375 501.703125 1279.238281 495.65625 1285.335938 C 489.347656 1291.804688 482.453125 1297.796875 475.027344 1303.097656 C 472.855469 1337.722656 457.53125 1368.742188 433.984375 1391.226562 C 410.015625 1414.132812 377.453125 1428.234375 341.710938 1428.234375 C 339.007812 1428.234375 336.78125 1426.007812 336.78125 1423.304688 L 336.78125 259.585938 C 336.78125 256.882812 339.007812 254.65625 341.710938 254.65625 C 368.597656 254.65625 393.523438 263.246094 413.832031 277.773438 C 433.613281 291.984375 449.097656 311.921875 457.792969 335.199219 Z M 461.1875 344.851562 C 459.226562 344.902344 457.105469 345.0625 454.773438 345.222656 C 452.597656 345.378906 450.476562 344.054688 449.734375 341.878906 C 441.992188 319.082031 427.25 299.460938 408 285.726562 C 390.550781 273.214844 369.394531 265.527344 346.539062 264.570312 L 346.539062 1418.375 C 377.773438 1417.152344 405.984375 1404.375 427.089844 1384.226562 C 449.414062 1362.910156 463.785156 1333.324219 465.273438 1300.394531 C 465.324219 1298.910156 466.066406 1297.480469 467.339844 1296.578125 C 474.921875 1291.273438 482.027344 1285.285156 488.5 1278.601562 C 494.96875 1271.972656 500.800781 1264.761719 505.945312 1257.023438 C 507.164062 1255.164062 509.605469 1254.316406 511.777344 1255.164062 C 522.386719 1259.25 533.519531 1262.429688 545.027344 1264.550781 C 556.164062 1266.617188 567.726562 1267.679688 579.605469 1267.679688 C 631.734375 1267.679688 678.929688 1246.523438 713.132812 1212.375 C 747.285156 1178.226562 768.445312 1130.984375 768.445312 1078.859375 C 768.445312 1038.828125 755.980469 1001.710938 734.769531 971.167969 C 712.921875 939.777344 681.738281 915.28125 645.308594 901.761719 C 642.867188 900.859375 641.542969 898.15625 642.339844 895.609375 C 644.671875 888.398438 646.476562 880.976562 647.695312 873.394531 C 648.859375 866.023438 649.445312 858.386719 649.445312 850.488281 C 649.445312 847.941406 649.390625 845.660156 649.285156 843.59375 C 649.179688 841.367188 649.019531 839.246094 648.859375 837.179688 C 648.4375 834.84375 649.816406 832.511719 652.097656 831.714844 C 688.050781 819.363281 718.859375 796.03125 740.496094 765.703125 C 761.550781 736.167969 773.957031 700.003906 773.957031 660.980469 C 773.957031 617.660156 758.6875 577.890625 733.285156 546.820312 C 707.40625 515.164062 670.972656 492.414062 629.398438 484.039062 C 627.382812 483.667969 625.738281 482.074219 625.421875 479.957031 C 619.429688 441.40625 599.703125 407.417969 571.382812 383.1875 C 543.492188 359.324219 507.21875 344.851562 467.550781 344.851562 C 465.164062 344.742188 463.042969 344.796875 461.1875 344.851562 Z M 461.1875 344.851562 " fill-opacity="1" fill-rule="nonzero"/></g><path fill="#fff6d9" d="M 416.800781 507.582031 C 419.71875 507.367188 422.636719 507.210938 425.605469 507.210938 C 480.4375 507.210938 525.886719 547.453125 534.050781 600 C 590.582031 611.402344 633.109375 661.296875 633.109375 721.109375 C 633.109375 775.296875 598.21875 821.324219 549.640625 838.027344 C 549.960938 841.15625 550.121094 844.28125 550.121094 847.464844 C 550.121094 858.335938 548.371094 868.726562 545.242188 878.535156 C 594.398438 896.777344 629.453125 944.074219 629.453125 999.644531 C 629.453125 1070.90625 571.648438 1128.757812 500.324219 1128.757812 C 483.992188 1128.757812 468.347656 1125.734375 453.976562 1120.167969 C 446.871094 1130.824219 437.855469 1140.105469 427.355469 1147.421875 C 425.289062 1192.96875 387.742188 1229.238281 341.710938 1229.238281 L 341.710938 453.707031 C 376.550781 453.707031 406.144531 476.242188 416.800781 507.582031 Z M 416.800781 507.582031 " fill-opacity="1" fill-rule="evenodd"/><g clip-path="url(#a28997157a)"><path fill="#221f20" d="M 420.144531 502.4375 L 420.992188 502.382812 C 422.792969 502.332031 424.28125 502.277344 425.550781 502.277344 C 453.976562 502.277344 480.015625 512.671875 500.058594 529.796875 C 519.574219 546.5 533.363281 569.617188 538.242188 595.917969 C 566.503906 602.386719 591.21875 618.1875 608.984375 639.875 C 627.117188 662.039062 637.988281 690.300781 637.988281 721.160156 C 637.988281 748.945312 629.132812 774.664062 614.125 795.714844 C 599.4375 816.285156 578.808594 832.351562 554.785156 841.417969 C 554.785156 841.789062 554.839844 842.160156 554.839844 842.53125 C 554.890625 844.390625 555 846.03125 555 847.515625 C 555 853.03125 554.519531 858.546875 553.671875 864.007812 C 553.035156 867.984375 552.242188 871.855469 551.179688 875.621094 C 575.203125 885.484375 595.726562 902.132812 610.414062 923.183594 C 625.476562 944.871094 634.332031 971.222656 634.332031 999.589844 C 634.332031 1036.601562 619.324219 1070.113281 595.089844 1094.34375 C 570.800781 1118.628906 537.339844 1133.582031 500.324219 1133.582031 C 492 1133.582031 483.832031 1132.839844 475.824219 1131.300781 C 468.984375 1130.027344 462.300781 1128.226562 455.886719 1126 C 452.757812 1130.402344 449.257812 1134.535156 445.492188 1138.355469 C 441.40625 1142.542969 436.902344 1146.414062 432.128906 1149.914062 C 430.484375 1173.085938 420.144531 1193.871094 404.339844 1208.929688 C 388.058594 1224.464844 366 1234.007812 341.710938 1234.007812 C 339.007812 1234.007812 336.78125 1231.835938 336.78125 1229.078125 L 336.78125 453.707031 C 336.78125 451.003906 339.007812 448.777344 341.710938 448.777344 C 360.007812 448.777344 376.925781 454.609375 390.710938 464.523438 C 403.808594 473.964844 414.152344 487.113281 420.144531 502.4375 Z M 421.363281 512.195312 C 420.144531 512.246094 418.765625 512.351562 417.171875 512.457031 C 415 512.617188 412.878906 511.292969 412.136719 509.117188 C 407.097656 494.273438 397.5 481.492188 384.929688 472.480469 C 374.007812 464.632812 360.855469 459.699219 346.589844 458.746094 L 346.589844 1224.09375 C 366.316406 1222.925781 384.136719 1214.65625 397.5 1201.875 C 412.082031 1187.929688 421.46875 1168.628906 422.421875 1147.101562 C 422.476562 1145.617188 423.21875 1144.238281 424.492188 1143.285156 C 429.476562 1139.839844 434.089844 1135.863281 438.386719 1131.515625 C 442.628906 1127.167969 446.445312 1122.445312 449.839844 1117.355469 C 451.058594 1115.5 453.5 1114.652344 455.671875 1115.5 C 462.671875 1118.207031 469.992188 1120.273438 477.519531 1121.652344 C 484.839844 1123.03125 492.421875 1123.71875 500.269531 1123.71875 C 534.582031 1123.71875 565.605469 1109.828125 588.089844 1087.34375 C 610.574219 1064.863281 624.46875 1033.84375 624.46875 999.539062 C 624.46875 973.183594 616.300781 948.792969 602.300781 928.699219 C 587.929688 908.070312 567.40625 891.953125 543.4375 883.042969 C 541 882.140625 539.671875 879.4375 540.46875 876.894531 C 542.003906 872.171875 543.171875 867.296875 543.96875 862.363281 C 544.710938 857.539062 545.132812 852.554688 545.132812 847.359375 C 545.132812 845.660156 545.082031 844.125 545.027344 842.851562 C 544.976562 841.417969 544.871094 840.09375 544.761719 838.769531 C 544.339844 836.4375 545.71875 834.101562 548 833.308594 C 571.648438 825.195312 591.90625 809.871094 606.117188 789.933594 C 619.960938 770.527344 628.125 746.773438 628.125 721.054688 C 628.125 692.582031 618.105469 666.441406 601.398438 646.027344 C 584.375 625.242188 560.460938 610.289062 533.148438 604.773438 C 531.132812 604.402344 529.492188 602.8125 529.171875 600.691406 C 525.25 575.398438 512.308594 553.128906 493.695312 537.222656 C 475.398438 521.527344 451.589844 512.085938 425.550781 512.085938 C 423.910156 512.140625 422.476562 512.140625 421.363281 512.195312 Z M 421.363281 512.195312 " fill-opacity="1" fill-rule="nonzero"/></g><path fill="#221f20" d="M 370.082031 1087.980469 C 370.082031 1085.277344 372.257812 1083.050781 375.015625 1083.050781 C 377.71875 1083.050781 379.945312 1085.277344 379.945312 1087.980469 L 379.945312 1285.125 C 379.945312 1287.828125 377.71875 1290.054688 375.015625 1290.054688 C 372.308594 1290.054688 370.082031 1287.828125 370.082031 1285.125 Z M 370.082031 1087.980469 " fill-opacity="1" fill-rule="nonzero"/><path fill="#221f20" d="M 397.339844 1156.0625 C 397.339844 1153.359375 399.515625 1151.132812 402.273438 1151.132812 C 404.976562 1151.132812 407.203125 1153.359375 407.203125 1156.0625 L 407.203125 1309.304688 C 407.203125 1312.007812 404.976562 1314.234375 402.273438 1314.234375 C 399.566406 1314.234375 397.339844 1312.007812 397.339844 1309.304688 Z M 397.339844 1156.0625 " fill-opacity="1" fill-rule="nonzero"/><path fill="#221f20" d="M 370.082031 984.796875 C 370.082031 982.09375 372.257812 979.867188 375.015625 979.867188 C 377.71875 979.867188 379.945312 982.09375 379.945312 984.796875 L 379.945312 1058.554688 C 379.945312 1061.257812 377.71875 1063.484375 375.015625 1063.484375 C 372.308594 1063.484375 370.082031 1061.308594 370.082031 1058.554688 Z M 370.082031 984.796875 " fill-opacity="1" fill-rule="nonzero"/></svg>