<svg xmlns="http://www.w3.org/2000/svg" xmlns:xlink="http://www.w3.org/1999/xlink" width="1587" zoomAndPan="magnify" viewBox="0 0 1190.25 1683.749949" height="2245" preserveAspectRatio="xMidYMid meet" version="1.0"><defs><clipPath id="5d75d1eec5"><path d="M 326.359375 74 L 1043.476562 74 L 1043.476562 1658.753906 L 326.359375 1658.753906 Z M 326.359375 74 " clip-rule="nonzero"/></clipPath><clipPath id="7b6dd82277"><path d="M 774 761 L 1043.476562 761 L 1043.476562 942 L 774 942 Z M 774 761 " clip-rule="nonzero"/></clipPath><clipPath id="5eb5073382"><path d="M 326.359375 74 L 506 74 L 506 1658.753906 L 326.359375 1658.753906 Z M 326.359375 74 " clip-rule="nonzero"/></clipPath><clipPath id="a548b6b4a1"><path d="M 1013 911 L 1043.476562 911 L 1043.476562 1031 L 1013 1031 Z M 1013 911 " clip-rule="nonzero"/></clipPath></defs><g clip-path="url(#5d75d1eec5)"><path fill="#bfebf4" d="M 356.238281 1628.675781 L 416 1628.675781 L 416 1598.78125 L 475.757812 1598.78125 L 475.757812 1568.882812 L 505.640625 1568.882812 L 505.640625 1538.988281 L 535.519531 1538.988281 L 535.519531 1479.195312 L 565.398438 1479.195312 L 565.398438 1389.507812 L 535.519531 1389.507812 L 535.519531 1329.714844 L 505.640625 1329.714844 L 505.640625 1299.820312 L 595.277344 1299.820312 L 595.277344 1269.921875 L 684.917969 1269.921875 L 684.917969 1240.027344 L 714.796875 1240.027344 L 714.796875 1180.234375 L 744.675781 1180.234375 L 744.675781 1120.441406 L 804.4375 1120.441406 L 804.4375 1150.339844 L 834.316406 1150.339844 L 834.316406 1180.234375 L 894.078125 1180.234375 L 894.078125 1150.339844 L 923.957031 1150.339844 L 923.957031 1120.441406 L 983.714844 1120.441406 L 983.714844 1090.546875 L 1013.597656 1090.546875 L 1013.597656 1030.753906 L 1043.476562 1030.753906 L 1043.476562 851.378906 L 1013.597656 851.378906 L 1013.597656 761.691406 L 983.714844 761.691406 L 983.714844 731.792969 L 923.957031 731.792969 L 923.957031 701.898438 L 894.078125 701.898438 L 894.078125 612.210938 L 864.195312 612.210938 L 864.195312 552.417969 L 834.316406 552.417969 L 834.316406 522.523438 L 744.675781 522.523438 L 744.675781 492.625 L 774.558594 492.625 L 774.558594 402.9375 L 744.675781 402.9375 L 744.675781 343.148438 L 714.796875 343.148438 L 714.796875 313.25 L 684.917969 313.25 L 684.917969 283.355469 L 595.277344 283.355469 L 595.277344 253.457031 L 565.398438 253.457031 L 565.398438 223.5625 L 535.519531 223.5625 L 535.519531 193.667969 L 445.878906 193.667969 L 445.878906 223.5625 L 416 223.5625 L 416 163.769531 L 386.121094 163.769531 L 386.121094 103.976562 L 356.238281 103.976562 L 356.238281 74.082031 L 326.359375 74.082031 L 326.359375 1658.570312 L 356.238281 1658.570312 Z M 356.238281 1628.675781 " fill-opacity="1" fill-rule="nonzero"/></g><path fill="#d8bbff" d="M 684.917969 313.25 L 684.917969 343.148438 L 655.039062 343.148438 L 655.039062 313.25 Z M 684.917969 313.25 " fill-opacity="1" fill-rule="nonzero"/><path fill="#d8bbff" d="M 714.796875 373.042969 L 714.796875 402.9375 L 744.675781 402.9375 L 744.675781 343.148438 L 684.917969 343.148438 L 684.917969 373.042969 Z M 714.796875 373.042969 " fill-opacity="1" fill-rule="nonzero"/><path fill="#d8bbff" d="M 655.039062 343.148438 L 625.15625 343.148438 L 625.15625 402.9375 L 684.917969 402.9375 L 684.917969 373.042969 L 655.039062 373.042969 Z M 655.039062 343.148438 " fill-opacity="1" fill-rule="nonzero"/><path fill="#d8bbff" d="M 595.277344 432.835938 L 565.398438 432.835938 L 565.398438 492.625 L 595.277344 492.625 L 595.277344 462.730469 L 625.15625 462.730469 L 625.15625 402.9375 L 595.277344 402.9375 Z M 595.277344 432.835938 " fill-opacity="1" fill-rule="nonzero"/><path fill="#d8bbff" d="M 565.398438 253.457031 L 565.398438 283.355469 L 535.519531 283.355469 L 535.519531 253.457031 Z M 565.398438 253.457031 " fill-opacity="1" fill-rule="nonzero"/><path fill="#d8bbff" d="M 445.878906 283.355469 L 475.757812 283.355469 L 475.757812 253.457031 L 535.519531 253.457031 L 535.519531 223.5625 L 445.878906 223.5625 L 445.878906 253.457031 L 416 253.457031 L 416 313.25 L 445.878906 313.25 Z M 445.878906 283.355469 " fill-opacity="1" fill-rule="nonzero"/><path fill="#d8bbff" d="M 416 313.25 L 416 373.042969 L 386.121094 373.042969 L 386.121094 313.25 Z M 416 313.25 " fill-opacity="1" fill-rule="nonzero"/><path fill="#d8bbff" d="M 505.640625 522.523438 L 505.640625 492.625 L 416 492.625 L 416 462.730469 L 386.121094 462.730469 L 386.121094 373.042969 L 356.238281 373.042969 L 356.238281 522.523438 L 386.121094 522.523438 L 386.121094 552.417969 L 416 552.417969 L 416 522.523438 Z M 505.640625 522.523438 " fill-opacity="1" fill-rule="nonzero"/><path fill="#d8bbff" d="M 416 163.769531 L 416 253.457031 L 386.121094 253.457031 L 386.121094 163.769531 Z M 416 163.769531 " fill-opacity="1" fill-rule="nonzero"/><path fill="#d8bbff" d="M 386.121094 103.976562 L 386.121094 163.769531 L 356.238281 163.769531 L 356.238281 103.976562 Z M 386.121094 103.976562 " fill-opacity="1" fill-rule="nonzero"/><path fill="#d8bbff" d="M 535.519531 283.355469 L 535.519531 313.25 L 505.640625 313.25 L 505.640625 283.355469 Z M 535.519531 283.355469 " fill-opacity="1" fill-rule="nonzero"/><path fill="#d8bbff" d="M 445.878906 373.042969 L 445.878906 402.9375 L 416 402.9375 L 416 373.042969 Z M 445.878906 373.042969 " fill-opacity="1" fill-rule="nonzero"/><path fill="#d8bbff" d="M 834.316406 552.417969 L 834.316406 582.316406 L 744.675781 582.316406 L 744.675781 552.417969 Z M 834.316406 552.417969 " fill-opacity="1" fill-rule="nonzero"/><path fill="#d8bbff" d="M 864.195312 582.316406 L 864.195312 612.210938 L 834.316406 612.210938 L 834.316406 582.316406 Z M 864.195312 582.316406 " fill-opacity="1" fill-rule="nonzero"/><path fill="#d8bbff" d="M 744.675781 522.523438 L 744.675781 552.417969 L 684.917969 552.417969 L 684.917969 522.523438 Z M 744.675781 522.523438 " fill-opacity="1" fill-rule="nonzero"/><path fill="#d8bbff" d="M 684.917969 552.417969 L 684.917969 642.105469 L 655.039062 642.105469 L 655.039062 552.417969 Z M 684.917969 552.417969 " fill-opacity="1" fill-rule="nonzero"/><path fill="#d8bbff" d="M 655.039062 642.105469 L 655.039062 731.792969 L 625.15625 731.792969 L 625.15625 642.105469 Z M 655.039062 642.105469 " fill-opacity="1" fill-rule="nonzero"/><path fill="#d8bbff" d="M 714.796875 642.105469 L 714.796875 672.003906 L 684.917969 672.003906 L 684.917969 642.105469 Z M 714.796875 642.105469 " fill-opacity="1" fill-rule="nonzero"/><path fill="#d8bbff" d="M 625.15625 731.792969 L 625.15625 791.585938 L 595.277344 791.585938 L 595.277344 731.792969 Z M 625.15625 731.792969 " fill-opacity="1" fill-rule="nonzero"/><path fill="#d8bbff" d="M 684.917969 761.691406 L 684.917969 791.585938 L 655.039062 791.585938 L 655.039062 761.691406 Z M 684.917969 761.691406 " fill-opacity="1" fill-rule="nonzero"/><path fill="#d8bbff" d="M 416 582.316406 L 416 642.105469 L 386.121094 642.105469 L 386.121094 582.316406 Z M 416 582.316406 " fill-opacity="1" fill-rule="nonzero"/><path fill="#d8bbff" d="M 565.398438 582.316406 L 565.398438 642.105469 L 535.519531 642.105469 L 535.519531 582.316406 Z M 565.398438 582.316406 " fill-opacity="1" fill-rule="nonzero"/><path fill="#d8bbff" d="M 475.757812 612.210938 L 505.640625 612.210938 L 505.640625 582.316406 L 535.519531 582.316406 L 535.519531 552.417969 L 416 552.417969 L 416 582.316406 L 475.757812 582.316406 Z M 475.757812 612.210938 " fill-opacity="1" fill-rule="nonzero"/><path fill="#d8bbff" d="M 535.519531 761.691406 L 535.519531 791.585938 L 505.640625 791.585938 L 505.640625 761.691406 Z M 535.519531 761.691406 " fill-opacity="1" fill-rule="nonzero"/><path fill="#d8bbff" d="M 445.878906 851.378906 L 445.878906 881.273438 L 416 881.273438 L 416 851.378906 Z M 445.878906 851.378906 " fill-opacity="1" fill-rule="nonzero"/><g clip-path="url(#7b6dd82277)"><path fill="#d8bbff" d="M 804.4375 791.585938 L 804.4375 821.484375 L 774.558594 821.484375 L 774.558594 941.066406 L 804.4375 941.066406 L 804.4375 851.378906 L 864.195312 851.378906 L 864.195312 821.484375 L 923.957031 821.484375 L 923.957031 851.378906 L 983.714844 851.378906 L 983.714844 881.273438 L 1013.597656 881.273438 L 1013.597656 911.171875 L 1043.476562 911.171875 L 1043.476562 851.378906 L 1013.597656 851.378906 L 1013.597656 821.484375 L 983.714844 821.484375 L 983.714844 791.585938 L 923.957031 791.585938 L 923.957031 761.691406 L 864.195312 761.691406 L 864.195312 791.585938 Z M 804.4375 791.585938 " fill-opacity="1" fill-rule="nonzero"/></g><path fill="#d8bbff" d="M 834.316406 941.066406 L 834.316406 1060.652344 L 804.4375 1060.652344 L 804.4375 941.066406 Z M 834.316406 941.066406 " fill-opacity="1" fill-rule="nonzero"/><path fill="#d8bbff" d="M 804.4375 1090.546875 L 804.4375 1120.441406 L 774.558594 1120.441406 L 774.558594 1090.546875 Z M 804.4375 1090.546875 " fill-opacity="1" fill-rule="nonzero"/><path fill="#d8bbff" d="M 864.195312 911.171875 L 864.195312 941.066406 L 834.316406 941.066406 L 834.316406 911.171875 Z M 864.195312 911.171875 " fill-opacity="1" fill-rule="nonzero"/><path fill="#d8bbff" d="M 475.757812 970.964844 L 505.640625 970.964844 L 505.640625 941.066406 L 565.398438 941.066406 L 565.398438 911.171875 L 655.039062 911.171875 L 655.039062 941.066406 L 714.796875 941.066406 L 714.796875 1000.859375 L 744.675781 1000.859375 L 744.675781 1060.652344 L 774.558594 1060.652344 L 774.558594 970.964844 L 744.675781 970.964844 L 744.675781 911.171875 L 714.796875 911.171875 L 714.796875 881.273438 L 655.039062 881.273438 L 655.039062 851.378906 L 565.398438 851.378906 L 565.398438 881.273438 L 505.640625 881.273438 L 505.640625 911.171875 L 475.757812 911.171875 L 475.757812 941.066406 L 445.878906 941.066406 L 445.878906 1060.652344 L 475.757812 1060.652344 Z M 475.757812 970.964844 " fill-opacity="1" fill-rule="nonzero"/><path fill="#d8bbff" d="M 505.640625 1120.441406 L 505.640625 1090.546875 L 535.519531 1090.546875 L 535.519531 1060.652344 L 475.757812 1060.652344 L 475.757812 1120.441406 Z M 505.640625 1120.441406 " fill-opacity="1" fill-rule="nonzero"/><path fill="#d8bbff" d="M 505.640625 1329.714844 L 505.640625 1359.609375 L 416 1359.609375 L 416 1329.714844 Z M 505.640625 1329.714844 " fill-opacity="1" fill-rule="nonzero"/><path fill="#d8bbff" d="M 535.519531 1359.609375 L 535.519531 1389.507812 L 505.640625 1389.507812 L 505.640625 1359.609375 Z M 535.519531 1359.609375 " fill-opacity="1" fill-rule="nonzero"/><path fill="#d8bbff" d="M 416 1359.609375 L 416 1419.402344 L 386.121094 1419.402344 L 386.121094 1359.609375 Z M 416 1359.609375 " fill-opacity="1" fill-rule="nonzero"/><path fill="#d8bbff" d="M 386.121094 1419.402344 L 386.121094 1568.882812 L 356.238281 1568.882812 L 356.238281 1419.402344 Z M 386.121094 1419.402344 " fill-opacity="1" fill-rule="nonzero"/><path fill="#d8bbff" d="M 445.878906 1419.402344 L 445.878906 1449.300781 L 416 1449.300781 L 416 1419.402344 Z M 445.878906 1419.402344 " fill-opacity="1" fill-rule="nonzero"/><path fill="#d8bbff" d="M 565.398438 1030.753906 L 565.398438 1060.652344 L 535.519531 1060.652344 L 535.519531 1030.753906 Z M 565.398438 1030.753906 " fill-opacity="1" fill-rule="nonzero"/><path fill="#d8bbff" d="M 625.15625 1030.753906 L 625.15625 1000.859375 L 565.398438 1000.859375 L 565.398438 1030.753906 Z M 625.15625 1030.753906 " fill-opacity="1" fill-rule="nonzero"/><path fill="#d8bbff" d="M 655.039062 1030.753906 L 655.039062 1060.652344 L 625.15625 1060.652344 L 625.15625 1030.753906 Z M 655.039062 1030.753906 " fill-opacity="1" fill-rule="nonzero"/><path fill="#d8bbff" d="M 565.398438 1090.546875 L 565.398438 1120.441406 L 535.519531 1120.441406 L 535.519531 1090.546875 Z M 565.398438 1090.546875 " fill-opacity="1" fill-rule="nonzero"/><path fill="#d8bbff" d="M 595.277344 1120.441406 L 595.277344 1150.339844 L 565.398438 1150.339844 L 565.398438 1120.441406 Z M 595.277344 1120.441406 " fill-opacity="1" fill-rule="nonzero"/><path fill="#d8bbff" d="M 445.878906 642.105469 L 445.878906 672.003906 L 416 672.003906 L 416 642.105469 Z M 445.878906 642.105469 " fill-opacity="1" fill-rule="nonzero"/><path fill="#d8bbff" d="M 505.640625 672.003906 L 505.640625 701.898438 L 445.878906 701.898438 L 445.878906 672.003906 Z M 505.640625 672.003906 " fill-opacity="1" fill-rule="nonzero"/><path fill="#d8bbff" d="M 535.519531 701.898438 L 535.519531 731.792969 L 505.640625 731.792969 L 505.640625 701.898438 Z M 535.519531 701.898438 " fill-opacity="1" fill-rule="nonzero"/><path fill="#d8bbff" d="M 445.878906 701.898438 L 445.878906 761.691406 L 416 761.691406 L 416 701.898438 Z M 445.878906 701.898438 " fill-opacity="1" fill-rule="nonzero"/><path fill="#d8bbff" d="M 475.757812 761.691406 L 475.757812 791.585938 L 445.878906 791.585938 L 445.878906 761.691406 Z M 475.757812 761.691406 " fill-opacity="1" fill-rule="nonzero"/><path fill="#d8bbff" d="M 445.878906 1240.027344 L 416 1240.027344 L 416 1180.234375 L 386.121094 1180.234375 L 386.121094 1090.546875 L 416 1090.546875 L 416 1120.441406 L 445.878906 1120.441406 L 445.878906 1060.652344 L 386.121094 1060.652344 L 386.121094 642.105469 L 356.238281 642.105469 L 356.238281 1299.820312 L 386.121094 1299.820312 L 386.121094 1269.921875 L 416 1269.921875 L 416 1299.820312 L 445.878906 1299.820312 Z M 445.878906 1240.027344 " fill-opacity="1" fill-rule="nonzero"/><path fill="#d8bbff" d="M 475.757812 1210.132812 L 475.757812 1240.027344 L 445.878906 1240.027344 L 445.878906 1210.132812 Z M 475.757812 1210.132812 " fill-opacity="1" fill-rule="nonzero"/><path fill="#d8bbff" d="M 505.640625 1269.921875 L 505.640625 1299.820312 L 475.757812 1299.820312 L 475.757812 1269.921875 Z M 505.640625 1269.921875 " fill-opacity="1" fill-rule="nonzero"/><path fill="#d8bbff" d="M 475.757812 1120.441406 L 475.757812 1150.339844 L 445.878906 1150.339844 L 445.878906 1120.441406 Z M 475.757812 1120.441406 " fill-opacity="1" fill-rule="nonzero"/><g clip-path="url(#5eb5073382)"><path fill="#7c9ae0" d="M 356.238281 1598.78125 L 386.121094 1598.78125 L 386.121094 1568.882812 L 356.238281 1568.882812 L 356.238281 1419.402344 L 386.121094 1419.402344 L 386.121094 1359.609375 L 416 1359.609375 L 416 1329.714844 L 505.640625 1329.714844 L 505.640625 1299.820312 L 416 1299.820312 L 416 1269.921875 L 386.121094 1269.921875 L 386.121094 1299.820312 L 356.238281 1299.820312 L 356.238281 1090.546875 L 386.121094 1090.546875 L 386.121094 1060.652344 L 416 1060.652344 L 416 1090.546875 L 445.878906 1090.546875 L 445.878906 1120.441406 L 475.757812 1120.441406 L 475.757812 1060.652344 L 445.878906 1060.652344 L 445.878906 941.066406 L 416 941.066406 L 416 1000.859375 L 386.121094 1000.859375 L 386.121094 1030.753906 L 356.238281 1030.753906 L 356.238281 642.105469 L 386.121094 642.105469 L 386.121094 582.316406 L 416 582.316406 L 416 552.417969 L 386.121094 552.417969 L 386.121094 522.523438 L 356.238281 522.523438 L 356.238281 373.042969 L 386.121094 373.042969 L 386.121094 313.25 L 416 313.25 L 416 253.457031 L 386.121094 253.457031 L 386.121094 283.355469 L 356.238281 283.355469 L 356.238281 74.082031 L 326.359375 74.082031 L 326.359375 1658.570312 L 356.238281 1658.570312 Z M 356.238281 1598.78125 " fill-opacity="1" fill-rule="nonzero"/></g><path fill="#7c9ae0" d="M 744.675781 492.625 L 744.675781 522.523438 L 684.917969 522.523438 L 684.917969 492.625 Z M 744.675781 492.625 " fill-opacity="1" fill-rule="nonzero"/><path fill="#7c9ae0" d="M 684.917969 522.523438 L 684.917969 552.417969 L 655.039062 552.417969 L 655.039062 522.523438 Z M 684.917969 522.523438 " fill-opacity="1" fill-rule="nonzero"/><path fill="#7c9ae0" d="M 834.316406 522.523438 L 834.316406 552.417969 L 744.675781 552.417969 L 744.675781 522.523438 Z M 834.316406 522.523438 " fill-opacity="1" fill-rule="nonzero"/><path fill="#7c9ae0" d="M 864.195312 552.417969 L 864.195312 582.316406 L 834.316406 582.316406 L 834.316406 552.417969 Z M 864.195312 552.417969 " fill-opacity="1" fill-rule="nonzero"/><path fill="#7c9ae0" d="M 535.519531 1329.714844 L 535.519531 1359.609375 L 505.640625 1359.609375 L 505.640625 1329.714844 Z M 535.519531 1329.714844 " fill-opacity="1" fill-rule="nonzero"/><path fill="#7c9ae0" d="M 804.4375 791.585938 L 864.195312 791.585938 L 864.195312 761.691406 L 923.957031 761.691406 L 923.957031 791.585938 L 983.714844 791.585938 L 983.714844 821.484375 L 1013.597656 821.484375 L 1013.597656 761.691406 L 983.714844 761.691406 L 983.714844 731.792969 L 923.957031 731.792969 L 923.957031 701.898438 L 864.195312 701.898438 L 864.195312 731.792969 L 804.4375 731.792969 L 804.4375 761.691406 L 774.558594 761.691406 L 774.558594 821.484375 L 804.4375 821.484375 Z M 804.4375 791.585938 " fill-opacity="1" fill-rule="nonzero"/><path fill="#7c9ae0" d="M 535.519531 193.667969 L 535.519531 223.5625 L 445.878906 223.5625 L 445.878906 193.667969 Z M 535.519531 193.667969 " fill-opacity="1" fill-rule="nonzero"/><path fill="#7c9ae0" d="M 565.398438 223.5625 L 565.398438 253.457031 L 535.519531 253.457031 L 535.519531 223.5625 Z M 565.398438 223.5625 " fill-opacity="1" fill-rule="nonzero"/><path fill="#7c9ae0" d="M 445.878906 223.5625 L 445.878906 253.457031 L 416 253.457031 L 416 223.5625 Z M 445.878906 223.5625 " fill-opacity="1" fill-rule="nonzero"/><path fill="#7c9ae0" d="M 595.277344 402.9375 L 595.277344 432.835938 L 565.398438 432.835938 L 565.398438 402.9375 Z M 595.277344 402.9375 " fill-opacity="1" fill-rule="nonzero"/><path fill="#7c9ae0" d="M 774.558594 1060.652344 L 774.558594 1120.441406 L 744.675781 1120.441406 L 744.675781 1060.652344 Z M 774.558594 1060.652344 " fill-opacity="1" fill-rule="nonzero"/><path fill="#7c9ae0" d="M 505.640625 1120.441406 L 505.640625 1150.339844 L 475.757812 1150.339844 L 475.757812 1120.441406 Z M 505.640625 1120.441406 " fill-opacity="1" fill-rule="nonzero"/><path fill="#7c9ae0" d="M 535.519531 552.417969 L 535.519531 582.316406 L 565.398438 582.316406 L 565.398438 642.105469 L 595.277344 642.105469 L 595.277344 731.792969 L 625.15625 731.792969 L 625.15625 642.105469 L 655.039062 642.105469 L 655.039062 552.417969 L 625.15625 552.417969 L 625.15625 582.316406 L 595.277344 582.316406 L 595.277344 552.417969 L 565.398438 552.417969 L 565.398438 522.523438 L 535.519531 522.523438 L 535.519531 492.625 L 505.640625 492.625 L 505.640625 522.523438 L 416 522.523438 L 416 552.417969 Z M 535.519531 552.417969 " fill-opacity="1" fill-rule="nonzero"/><path fill="#7c9ae0" d="M 714.796875 313.25 L 714.796875 343.148438 L 684.917969 343.148438 L 684.917969 313.25 Z M 714.796875 313.25 " fill-opacity="1" fill-rule="nonzero"/><path fill="#7c9ae0" d="M 565.398438 791.585938 L 535.519531 791.585938 L 535.519531 821.484375 L 505.640625 821.484375 L 505.640625 851.378906 L 475.757812 851.378906 L 475.757812 881.273438 L 445.878906 881.273438 L 445.878906 941.066406 L 475.757812 941.066406 L 475.757812 911.171875 L 505.640625 911.171875 L 505.640625 881.273438 L 565.398438 881.273438 L 565.398438 851.378906 L 655.039062 851.378906 L 655.039062 881.273438 L 714.796875 881.273438 L 714.796875 911.171875 L 744.675781 911.171875 L 744.675781 970.964844 L 774.558594 970.964844 L 774.558594 1060.652344 L 804.4375 1060.652344 L 804.4375 941.066406 L 774.558594 941.066406 L 774.558594 821.484375 L 684.917969 821.484375 L 684.917969 791.585938 L 595.277344 791.585938 L 595.277344 731.792969 L 565.398438 731.792969 Z M 565.398438 791.585938 " fill-opacity="1" fill-rule="nonzero"/><path fill="#7c9ae0" d="M 565.398438 313.25 L 595.277344 313.25 L 595.277344 402.9375 L 625.15625 402.9375 L 625.15625 343.148438 L 655.039062 343.148438 L 655.039062 313.25 L 684.917969 313.25 L 684.917969 283.355469 L 595.277344 283.355469 L 595.277344 253.457031 L 565.398438 253.457031 Z M 565.398438 313.25 " fill-opacity="1" fill-rule="nonzero"/><g clip-path="url(#a548b6b4a1)"><path fill="#f2fcfc" d="M 1043.476562 911.171875 L 1043.476562 1030.753906 L 1013.597656 1030.753906 L 1013.597656 911.171875 Z M 1043.476562 911.171875 " fill-opacity="1" fill-rule="nonzero"/></g><path fill="#f2fcfc" d="M 1013.597656 1030.753906 L 1013.597656 1090.546875 L 983.714844 1090.546875 L 983.714844 1030.753906 Z M 1013.597656 1030.753906 " fill-opacity="1" fill-rule="nonzero"/><path fill="#f2fcfc" d="M 983.714844 1000.859375 L 983.714844 1030.753906 L 953.835938 1030.753906 L 953.835938 1000.859375 Z M 983.714844 1000.859375 " fill-opacity="1" fill-rule="nonzero"/><path fill="#f2fcfc" d="M 983.714844 1090.546875 L 983.714844 1120.441406 L 923.957031 1120.441406 L 923.957031 1090.546875 Z M 983.714844 1090.546875 " fill-opacity="1" fill-rule="nonzero"/><path fill="#f2fcfc" d="M 923.957031 1060.652344 L 923.957031 1090.546875 L 894.078125 1090.546875 L 894.078125 1060.652344 Z M 923.957031 1060.652344 " fill-opacity="1" fill-rule="nonzero"/><path fill="#f2fcfc" d="M 953.835938 1060.652344 L 953.835938 1090.546875 L 923.957031 1090.546875 L 923.957031 1060.652344 Z M 953.835938 1060.652344 " fill-opacity="1" fill-rule="nonzero"/><path fill="#f2fcfc" d="M 1013.597656 970.964844 L 1013.597656 1000.859375 L 983.714844 1000.859375 L 983.714844 970.964844 Z M 1013.597656 970.964844 " fill-opacity="1" fill-rule="nonzero"/><path fill="#f2fcfc" d="M 983.714844 941.066406 L 983.714844 970.964844 L 953.835938 970.964844 L 953.835938 941.066406 Z M 983.714844 941.066406 " fill-opacity="1" fill-rule="nonzero"/><path fill="#f2fcfc" d="M 1013.597656 881.273438 L 1013.597656 911.171875 L 983.714844 911.171875 L 983.714844 881.273438 Z M 1013.597656 881.273438 " fill-opacity="1" fill-rule="nonzero"/><path fill="#f2fcfc" d="M 894.078125 1120.441406 L 894.078125 1150.339844 L 864.195312 1150.339844 L 864.195312 1120.441406 Z M 894.078125 1120.441406 " fill-opacity="1" fill-rule="nonzero"/><path fill="#f2fcfc" d="M 864.195312 1090.546875 L 864.195312 1120.441406 L 834.316406 1120.441406 L 834.316406 1090.546875 Z M 864.195312 1090.546875 " fill-opacity="1" fill-rule="nonzero"/><path fill="#f2fcfc" d="M 983.714844 851.378906 L 983.714844 881.273438 L 953.835938 881.273438 L 953.835938 851.378906 Z M 983.714844 851.378906 " fill-opacity="1" fill-rule="nonzero"/><path fill="#f2fcfc" d="M 923.957031 1120.441406 L 923.957031 1150.339844 L 894.078125 1150.339844 L 894.078125 1120.441406 Z M 923.957031 1120.441406 " fill-opacity="1" fill-rule="nonzero"/><path fill="#f2fcfc" d="M 894.078125 1150.339844 L 894.078125 1180.234375 L 834.316406 1180.234375 L 834.316406 1150.339844 Z M 894.078125 1150.339844 " fill-opacity="1" fill-rule="nonzero"/><path fill="#f2fcfc" d="M 834.316406 1120.441406 L 834.316406 1150.339844 L 804.4375 1150.339844 L 804.4375 1120.441406 Z M 834.316406 1120.441406 " fill-opacity="1" fill-rule="nonzero"/><path fill="#f2fcfc" d="M 744.675781 1120.441406 L 744.675781 1180.234375 L 714.796875 1180.234375 L 714.796875 1120.441406 Z M 744.675781 1120.441406 " fill-opacity="1" fill-rule="nonzero"/><path fill="#f2fcfc" d="M 714.796875 1180.234375 L 714.796875 1240.027344 L 684.917969 1240.027344 L 684.917969 1180.234375 Z M 714.796875 1180.234375 " fill-opacity="1" fill-rule="nonzero"/><path fill="#f2fcfc" d="M 684.917969 1240.027344 L 684.917969 1269.921875 L 595.277344 1269.921875 L 595.277344 1240.027344 Z M 684.917969 1240.027344 " fill-opacity="1" fill-rule="nonzero"/><path fill="#f2fcfc" d="M 595.277344 1269.921875 L 595.277344 1299.820312 L 505.640625 1299.820312 L 505.640625 1269.921875 Z M 595.277344 1269.921875 " fill-opacity="1" fill-rule="nonzero"/><path fill="#f2fcfc" d="M 714.796875 1090.546875 L 714.796875 1120.441406 L 684.917969 1120.441406 L 684.917969 1090.546875 Z M 714.796875 1090.546875 " fill-opacity="1" fill-rule="nonzero"/><path fill="#f2fcfc" d="M 684.917969 1150.339844 L 684.917969 1180.234375 L 655.039062 1180.234375 L 655.039062 1150.339844 Z M 684.917969 1150.339844 " fill-opacity="1" fill-rule="nonzero"/><path fill="#f2fcfc" d="M 744.675781 1060.652344 L 744.675781 1090.546875 L 714.796875 1090.546875 L 714.796875 1060.652344 Z M 744.675781 1060.652344 " fill-opacity="1" fill-rule="nonzero"/><path fill="#f2fcfc" d="M 684.917969 1210.132812 L 684.917969 1240.027344 L 655.039062 1240.027344 L 655.039062 1210.132812 Z M 684.917969 1210.132812 " fill-opacity="1" fill-rule="nonzero"/><path fill="#f2fcfc" d="M 655.039062 1180.234375 L 655.039062 1210.132812 L 625.15625 1210.132812 L 625.15625 1180.234375 Z M 655.039062 1180.234375 " fill-opacity="1" fill-rule="nonzero"/><path fill="#f2fcfc" d="M 595.277344 1210.132812 L 595.277344 1240.027344 L 565.398438 1240.027344 L 565.398438 1210.132812 Z M 595.277344 1210.132812 " fill-opacity="1" fill-rule="nonzero"/><path fill="#f2fcfc" d="M 565.398438 1389.507812 L 565.398438 1479.195312 L 535.519531 1479.195312 L 535.519531 1389.507812 Z M 565.398438 1389.507812 " fill-opacity="1" fill-rule="nonzero"/><path fill="#f2fcfc" d="M 535.519531 1479.195312 L 535.519531 1538.988281 L 505.640625 1538.988281 L 505.640625 1479.195312 Z M 535.519531 1479.195312 " fill-opacity="1" fill-rule="nonzero"/><path fill="#f2fcfc" d="M 505.640625 1449.300781 L 505.640625 1479.195312 L 475.757812 1479.195312 L 475.757812 1449.300781 Z M 505.640625 1449.300781 " fill-opacity="1" fill-rule="nonzero"/><path fill="#f2fcfc" d="M 505.640625 1538.988281 L 505.640625 1568.882812 L 475.757812 1568.882812 L 475.757812 1538.988281 Z M 505.640625 1538.988281 " fill-opacity="1" fill-rule="nonzero"/><path fill="#f2fcfc" d="M 475.757812 1568.882812 L 475.757812 1598.78125 L 416 1598.78125 L 416 1568.882812 Z M 475.757812 1568.882812 " fill-opacity="1" fill-rule="nonzero"/><path fill="#f2fcfc" d="M 416 1598.78125 L 416 1628.675781 L 386.121094 1628.675781 L 386.121094 1598.78125 Z M 416 1598.78125 " fill-opacity="1" fill-rule="nonzero"/><path fill="#f2fcfc" d="M 864.195312 642.105469 L 864.195312 701.898438 L 894.078125 701.898438 L 894.078125 612.210938 L 834.316406 612.210938 L 834.316406 642.105469 Z M 864.195312 642.105469 " fill-opacity="1" fill-rule="nonzero"/><path fill="#f2fcfc" d="M 744.675781 402.9375 L 714.796875 402.9375 L 714.796875 432.835938 L 744.675781 432.835938 L 744.675781 492.625 L 774.558594 492.625 L 774.558594 402.9375 Z M 744.675781 402.9375 " fill-opacity="1" fill-rule="nonzero"/><path fill="#f2fcfc" d="M 714.796875 462.730469 L 714.796875 492.625 L 684.917969 492.625 L 684.917969 462.730469 Z M 714.796875 462.730469 " fill-opacity="1" fill-rule="nonzero"/><path fill="#f2fcfc" d="M 625.15625 462.730469 L 625.15625 492.625 L 595.277344 492.625 L 595.277344 462.730469 Z M 625.15625 462.730469 " fill-opacity="1" fill-rule="nonzero"/><path fill="#f2fcfc" d="M 565.398438 402.9375 L 565.398438 462.730469 L 535.519531 462.730469 L 535.519531 402.9375 Z M 565.398438 402.9375 " fill-opacity="1" fill-rule="nonzero"/><path fill="#f2fcfc" d="M 535.519531 462.730469 L 535.519531 492.625 L 505.640625 492.625 L 505.640625 462.730469 Z M 535.519531 462.730469 " fill-opacity="1" fill-rule="nonzero"/><path fill="#f2fcfc" d="M 595.277344 313.25 L 595.277344 402.9375 L 565.398438 402.9375 L 565.398438 313.25 Z M 595.277344 313.25 " fill-opacity="1" fill-rule="nonzero"/><path fill="#f2fcfc" d="M 595.277344 642.105469 L 595.277344 731.792969 L 565.398438 731.792969 L 565.398438 642.105469 Z M 595.277344 642.105469 " fill-opacity="1" fill-rule="nonzero"/><path fill="#f2fcfc" d="M 565.398438 731.792969 L 565.398438 791.585938 L 535.519531 791.585938 L 535.519531 731.792969 Z M 565.398438 731.792969 " fill-opacity="1" fill-rule="nonzero"/><path fill="#f2fcfc" d="M 535.519531 791.585938 L 535.519531 821.484375 L 505.640625 821.484375 L 505.640625 791.585938 Z M 535.519531 791.585938 " fill-opacity="1" fill-rule="nonzero"/><path fill="#f2fcfc" d="M 744.675781 1000.859375 L 744.675781 1060.652344 L 714.796875 1060.652344 L 714.796875 1000.859375 Z M 744.675781 1000.859375 " fill-opacity="1" fill-rule="nonzero"/><path fill="#f2fcfc" d="M 864.195312 701.898438 L 864.195312 731.792969 L 804.4375 731.792969 L 804.4375 701.898438 Z M 864.195312 701.898438 " fill-opacity="1" fill-rule="nonzero"/><path fill="#f2fcfc" d="M 804.4375 672.003906 L 804.4375 701.898438 L 774.558594 701.898438 L 774.558594 672.003906 Z M 804.4375 672.003906 " fill-opacity="1" fill-rule="nonzero"/><path fill="#f2fcfc" d="M 774.558594 761.691406 L 774.558594 821.484375 L 744.675781 821.484375 L 744.675781 761.691406 Z M 774.558594 761.691406 " fill-opacity="1" fill-rule="nonzero"/><path fill="#f2fcfc" d="M 744.675781 731.792969 L 744.675781 761.691406 L 714.796875 761.691406 L 714.796875 731.792969 Z M 744.675781 731.792969 " fill-opacity="1" fill-rule="nonzero"/><path fill="#f2fcfc" d="M 505.640625 1240.027344 L 505.640625 1269.921875 L 475.757812 1269.921875 L 475.757812 1240.027344 Z M 505.640625 1240.027344 " fill-opacity="1" fill-rule="nonzero"/><path fill="#f2fcfc" d="M 625.15625 1030.753906 L 625.15625 1060.652344 L 565.398438 1060.652344 L 565.398438 1030.753906 Z M 625.15625 1030.753906 " fill-opacity="1" fill-rule="nonzero"/><path fill="#f2fcfc" d="M 565.398438 1060.652344 L 565.398438 1090.546875 L 535.519531 1090.546875 L 535.519531 1060.652344 Z M 565.398438 1060.652344 " fill-opacity="1" fill-rule="nonzero"/><path fill="#f2fcfc" d="M 894.078125 911.171875 L 894.078125 941.066406 L 864.195312 941.066406 L 864.195312 911.171875 Z M 894.078125 911.171875 " fill-opacity="1" fill-rule="nonzero"/><path fill="#f2fcfc" d="M 505.640625 821.484375 L 505.640625 851.378906 L 475.757812 851.378906 L 475.757812 821.484375 Z M 505.640625 821.484375 " fill-opacity="1" fill-rule="nonzero"/><path fill="#f2fcfc" d="M 475.757812 851.378906 L 475.757812 881.273438 L 445.878906 881.273438 L 445.878906 851.378906 Z M 475.757812 851.378906 " fill-opacity="1" fill-rule="nonzero"/></svg>