<svg xmlns="http://www.w3.org/2000/svg" xmlns:xlink="http://www.w3.org/1999/xlink" width="1587" zoomAndPan="magnify" viewBox="0 0 1190.25 1683.749949" height="2245" preserveAspectRatio="xMidYMid meet" version="1.0"><defs><clipPath id="f8a7ef194a"><path d="M 180 40.082031 L 1120 40.082031 L 1120 1642.917969 L 180 1642.917969 Z M 180 40.082031 " clip-rule="nonzero"/></clipPath><clipPath id="78b9ebac96"><path d="M 180 40.082031 L 1120 40.082031 L 1120 1642.917969 L 180 1642.917969 Z M 180 40.082031 " clip-rule="nonzero"/></clipPath></defs><g clip-path="url(#f8a7ef194a)"><path fill="#000000" d="M 1064.257812 924.40625 L 1064.257812 869.132812 L 1008.996094 869.132812 L 1008.996094 813.863281 L 953.730469 813.863281 L 953.730469 758.59375 L 898.46875 758.59375 L 898.46875 703.324219 L 843.207031 703.324219 L 843.207031 648.054688 L 787.945312 648.054688 L 787.945312 592.785156 L 732.683594 592.785156 L 732.683594 537.515625 L 677.421875 537.515625 L 677.421875 482.242188 L 622.15625 482.242188 L 622.15625 426.972656 L 566.894531 426.972656 L 566.894531 371.703125 L 511.632812 371.703125 L 511.632812 316.433594 L 456.371094 316.433594 L 456.371094 261.164062 L 401.109375 261.164062 L 401.109375 205.894531 L 345.847656 205.894531 L 345.847656 150.621094 L 290.582031 150.621094 L 290.582031 95.351562 L 235.320312 95.351562 L 235.320312 40.082031 L 180.058594 40.082031 L 180.058594 1366.566406 L 290.582031 1366.566406 L 290.582031 1311.296875 L 345.847656 1311.296875 L 345.847656 1256.027344 L 401.109375 1256.027344 L 401.109375 1200.753906 L 456.371094 1200.753906 L 456.371094 1145.484375 L 511.632812 1145.484375 L 511.632812 1200.753906 L 566.894531 1200.753906 L 566.894531 1311.296875 L 622.15625 1311.296875 L 622.15625 1421.835938 L 677.421875 1421.835938 L 677.421875 1532.375 L 732.683594 1532.375 L 732.683594 1642.917969 L 843.207031 1642.917969 L 843.207031 1587.644531 L 898.46875 1587.644531 L 898.46875 1532.375 L 953.730469 1532.375 L 953.730469 1421.835938 L 898.46875 1421.835938 L 898.46875 1311.296875 L 843.207031 1311.296875 L 843.207031 1200.753906 L 787.945312 1200.753906 L 787.945312 1090.214844 L 732.683594 1090.214844 L 732.683594 1034.945312 L 1119.519531 1034.945312 L 1119.519531 924.40625 Z M 1064.257812 924.40625 " fill-opacity="1" fill-rule="nonzero"/></g><path fill="#d1d3d4" d="M 235.320312 150.621094 L 290.582031 150.621094 L 1064.257812 924.40625 L 1064.257812 979.675781 L 677.421875 979.675781 L 898.46875 1421.835938 L 898.46875 1587.644531 L 787.945312 1587.644531 L 732.683594 1532.375 L 566.894531 1200.753906 L 511.632812 1145.484375 L 456.371094 1145.484375 L 290.582031 1311.296875 L 235.320312 1311.296875 Z M 235.320312 150.621094 " fill-opacity="1" fill-rule="nonzero"/><path fill="#ffffff" d="M 345.847656 205.894531 L 345.847656 261.164062 L 290.582031 261.164062 L 290.582031 205.894531 Z M 345.847656 261.164062 L 345.847656 316.433594 L 401.109375 316.433594 L 401.109375 261.164062 Z M 401.109375 316.433594 L 401.109375 371.703125 L 456.371094 371.703125 L 456.371094 316.433594 Z M 456.371094 371.703125 L 456.371094 426.972656 L 511.632812 426.972656 L 511.632812 371.703125 Z M 511.632812 426.972656 L 511.632812 482.242188 L 566.894531 482.242188 L 566.894531 426.972656 Z M 566.894531 482.242188 L 566.894531 537.515625 L 622.15625 537.515625 L 622.15625 482.242188 Z M 622.15625 537.515625 L 622.15625 592.785156 L 677.421875 592.785156 L 677.421875 537.515625 Z M 677.421875 592.785156 L 677.421875 648.054688 L 732.683594 648.054688 L 732.683594 592.785156 Z M 732.683594 648.054688 L 732.683594 703.324219 L 787.945312 703.324219 L 787.945312 648.054688 Z M 787.945312 703.324219 L 787.945312 758.59375 L 843.207031 758.59375 L 843.207031 703.324219 Z M 843.207031 758.59375 L 843.207031 813.863281 L 898.46875 813.863281 L 898.46875 758.59375 Z M 898.46875 813.863281 L 898.46875 869.132812 L 953.730469 869.132812 L 953.730469 813.863281 Z M 1064.257812 924.40625 L 1008.996094 924.40625 L 1008.996094 869.132812 L 953.730469 869.132812 L 953.730469 924.40625 L 677.421875 924.40625 L 677.421875 979.675781 L 1064.257812 979.675781 Z M 732.683594 1200.753906 L 732.683594 1090.214844 L 677.421875 1090.214844 L 677.421875 1200.753906 Z M 622.15625 979.675781 L 622.15625 1090.214844 L 677.421875 1090.214844 L 677.421875 979.675781 Z M 787.945312 1311.296875 L 787.945312 1200.753906 L 732.683594 1200.753906 L 732.683594 1311.296875 Z M 843.207031 1421.835938 L 843.207031 1311.296875 L 787.945312 1311.296875 L 787.945312 1421.835938 Z M 898.46875 1532.375 L 898.46875 1421.835938 L 843.207031 1421.835938 L 843.207031 1532.375 Z M 898.46875 1532.375 " fill-opacity="1" fill-rule="nonzero"/><g clip-path="url(#78b9ebac96)"><path fill="#000000" d="M 290.582031 205.894531 L 290.582031 150.621094 L 345.847656 150.621094 L 345.847656 205.894531 Z M 401.109375 261.164062 L 401.109375 205.894531 L 345.847656 205.894531 L 345.847656 261.164062 Z M 456.371094 316.433594 L 456.371094 261.164062 L 401.109375 261.164062 L 401.109375 316.433594 Z M 511.632812 371.703125 L 511.632812 316.433594 L 456.371094 316.433594 L 456.371094 371.703125 Z M 566.894531 426.972656 L 566.894531 371.703125 L 511.632812 371.703125 L 511.632812 426.972656 Z M 622.15625 482.242188 L 622.15625 426.972656 L 566.894531 426.972656 L 566.894531 482.242188 Z M 677.421875 537.515625 L 677.421875 482.242188 L 622.15625 482.242188 L 622.15625 537.515625 Z M 732.683594 592.785156 L 732.683594 537.515625 L 677.421875 537.515625 L 677.421875 592.785156 Z M 787.945312 648.054688 L 787.945312 592.785156 L 732.683594 592.785156 L 732.683594 648.054688 Z M 843.207031 703.324219 L 843.207031 648.054688 L 787.945312 648.054688 L 787.945312 703.324219 Z M 898.46875 758.59375 L 898.46875 703.324219 L 843.207031 703.324219 L 843.207031 758.59375 Z M 953.730469 813.863281 L 953.730469 758.59375 L 898.46875 758.59375 L 898.46875 813.863281 Z M 1008.996094 869.132812 L 1008.996094 813.863281 L 953.730469 813.863281 L 953.730469 869.132812 Z M 1064.257812 924.40625 L 1064.257812 869.132812 L 1008.996094 869.132812 L 1008.996094 924.40625 Z M 1064.257812 924.40625 L 1064.257812 979.675781 L 677.421875 979.675781 L 677.421875 1090.214844 L 732.683594 1090.214844 L 732.683594 1200.753906 L 787.945312 1200.753906 L 787.945312 1090.214844 L 732.683594 1090.214844 L 732.683594 1034.945312 L 1119.519531 1034.945312 L 1119.519531 924.40625 Z M 401.109375 1200.753906 L 456.371094 1200.753906 L 456.371094 1145.484375 L 401.109375 1145.484375 Z M 511.632812 1090.214844 L 456.371094 1090.214844 L 456.371094 1145.484375 L 511.632812 1145.484375 L 511.632812 1200.753906 L 566.894531 1200.753906 L 566.894531 1090.214844 Z M 345.847656 1256.027344 L 401.109375 1256.027344 L 401.109375 1200.753906 L 345.847656 1200.753906 Z M 566.894531 1200.753906 L 566.894531 1311.296875 L 622.15625 1311.296875 L 622.15625 1200.753906 Z M 235.320312 1256.027344 L 235.320312 150.621094 L 290.582031 150.621094 L 290.582031 95.351562 L 235.320312 95.351562 L 235.320312 40.082031 L 180.058594 40.082031 L 180.058594 1366.566406 L 290.582031 1366.566406 L 290.582031 1311.296875 L 235.320312 1311.296875 Z M 290.582031 1311.296875 L 345.847656 1311.296875 L 345.847656 1256.027344 L 290.582031 1256.027344 Z M 622.15625 1311.296875 L 622.15625 1421.835938 L 677.421875 1421.835938 L 677.421875 1311.296875 Z M 843.207031 1311.296875 L 843.207031 1200.753906 L 787.945312 1200.753906 L 787.945312 1311.296875 Z M 898.46875 1421.835938 L 898.46875 1311.296875 L 843.207031 1311.296875 L 843.207031 1421.835938 Z M 677.421875 1421.835938 L 677.421875 1532.375 L 732.683594 1532.375 L 732.683594 1421.835938 Z M 953.730469 1532.375 L 953.730469 1421.835938 L 898.46875 1421.835938 L 898.46875 1532.375 Z M 787.945312 1532.375 L 732.683594 1532.375 L 732.683594 1642.917969 L 843.207031 1642.917969 L 843.207031 1587.644531 L 787.945312 1587.644531 Z M 843.207031 1587.644531 L 898.46875 1587.644531 L 898.46875 1532.375 L 843.207031 1532.375 Z M 843.207031 1587.644531 " fill-opacity="1" fill-rule="nonzero"/></g><path fill="#000000" d="M 345.847656 1145.484375 L 401.109375 1145.484375 L 401.109375 1200.753906 L 345.847656 1200.753906 Z M 401.109375 1145.484375 L 456.371094 1145.484375 L 456.371094 1090.214844 L 401.109375 1090.214844 Z M 456.371094 1034.945312 L 456.371094 1090.214844 L 566.894531 1090.214844 L 566.894531 1034.945312 Z M 566.894531 1090.214844 L 566.894531 1200.753906 L 622.15625 1200.753906 L 622.15625 1090.214844 Z M 622.15625 1200.753906 L 622.15625 1311.296875 L 677.421875 1311.296875 L 677.421875 1200.753906 Z M 677.421875 1311.296875 L 677.421875 1421.835938 L 732.683594 1421.835938 L 732.683594 1311.296875 Z M 732.683594 1421.835938 L 732.683594 1532.375 L 787.945312 1532.375 L 787.945312 1421.835938 Z M 787.945312 1532.375 L 787.945312 1587.644531 L 843.207031 1587.644531 L 843.207031 1532.375 Z M 290.582031 150.621094 L 235.320312 150.621094 L 235.320312 1311.296875 L 290.582031 1311.296875 L 290.582031 1256.027344 L 345.847656 1256.027344 L 345.847656 1200.753906 L 290.582031 1200.753906 Z M 290.582031 150.621094 " fill-opacity="0.3" fill-rule="nonzero"/></svg>