<svg xmlns="http://www.w3.org/2000/svg" xmlns:xlink="http://www.w3.org/1999/xlink" width="1587" zoomAndPan="magnify" viewBox="0 0 1190.25 1683.749949" height="2245" preserveAspectRatio="xMidYMid meet" version="1.0"><defs><clipPath id="cf606eda48"><path d="M 360.398438 154 L 840 154 L 840 1522 L 360.398438 1522 Z M 360.398438 154 " clip-rule="nonzero"/></clipPath><clipPath id="9f53d4ba49"><path d="M 428 105 L 908.164062 105 L 908.164062 1473 L 428 1473 Z M 428 105 " clip-rule="nonzero"/></clipPath></defs><path fill="#f16150" d="M 531.824219 242.359375 L 531.824219 250.089844 C 608.246094 250.089844 670.167969 312.027344 670.167969 388.464844 C 670.167969 394.121094 669.816406 399.730469 669.160156 405.183594 C 764.265625 429.6875 834.523438 516.027344 834.523438 618.78125 C 834.523438 689.054688 801.644531 751.699219 750.425781 792.066406 C 758.457031 812.222656 762.902344 834.199219 762.902344 857.234375 C 762.902344 886.585938 755.679688 914.273438 742.953125 938.621094 C 778.460938 975.25 800.328125 1025.164062 800.328125 1080.230469 C 800.328125 1166.515625 746.589844 1240.226562 670.824219 1269.832031 C 671.433594 1275.183594 671.785156 1280.589844 671.785156 1286.148438 C 671.785156 1362.988281 609.507812 1425.328125 532.632812 1425.328125 C 532.382812 1425.328125 532.128906 1425.328125 531.824219 1425.328125 L 531.824219 1433.464844 C 531.824219 1479.132812 494.449219 1516.46875 448.839844 1516.46875 C 403.179688 1516.46875 365.855469 1479.082031 365.855469 1433.464844 L 365.855469 242.359375 C 365.855469 196.691406 403.230469 159.355469 448.839844 159.355469 C 494.5 159.355469 531.824219 196.742188 531.824219 242.359375 Z M 531.824219 242.359375 " fill-opacity="1" fill-rule="evenodd"/><g clip-path="url(#cf606eda48)"><path fill="#221f20" d="M 537.179688 242.359375 L 537.179688 244.835938 C 574.757812 246.199219 608.597656 262.011719 633.398438 286.816406 C 659.410156 312.835938 675.472656 348.753906 675.472656 388.414062 C 675.472656 391.191406 675.371094 394.070312 675.21875 397.050781 C 675.167969 398.414062 675.070312 399.78125 674.917969 401.144531 C 722.292969 414.378906 763.359375 442.671875 792.652344 480.511719 C 822.25 518.703125 839.828125 566.644531 839.828125 618.679688 C 839.828125 653.996094 831.746094 687.386719 817.300781 717.195312 C 802.855469 746.902344 782.148438 773.019531 756.792969 793.734375 C 760.328125 803.179688 763.054688 812.929688 764.972656 822.933594 C 767.09375 834.046875 768.207031 845.515625 768.207031 857.183594 C 768.207031 872.039062 766.386719 886.539062 763.003906 900.378906 C 759.820312 913.414062 755.226562 925.839844 749.367188 937.613281 C 766.742188 956.152344 780.734375 977.875 790.429688 1001.824219 C 800.230469 1026.023438 805.632812 1052.496094 805.632812 1080.179688 C 805.632812 1123.777344 792.25 1164.292969 769.367188 1197.789062 C 746.589844 1231.183594 714.3125 1257.605469 676.484375 1273.214844 C 676.632812 1274.679688 676.734375 1276.144531 676.785156 1277.660156 C 676.9375 1280.589844 677.039062 1283.421875 677.039062 1286.097656 C 677.039062 1326.007812 660.875 1362.128906 634.710938 1388.300781 C 609.558594 1413.457031 575.164062 1429.371094 537.078125 1430.585938 L 537.078125 1433.464844 C 537.078125 1457.765625 527.128906 1479.839844 511.117188 1495.855469 C 495.105469 1511.871094 473.035156 1521.824219 448.738281 1521.824219 C 424.445312 1521.824219 402.371094 1511.871094 386.359375 1495.855469 C 370.351562 1479.839844 360.398438 1457.765625 360.398438 1433.464844 L 360.398438 242.359375 C 360.398438 218.058594 370.351562 195.984375 386.359375 179.96875 C 402.371094 163.953125 424.445312 154 448.738281 154 C 473.035156 154 495.105469 163.953125 511.117188 179.96875 C 527.128906 195.984375 537.179688 218.058594 537.179688 242.359375 Z M 526.472656 250.089844 L 526.472656 242.359375 C 526.472656 220.992188 517.734375 201.589844 503.640625 187.496094 C 489.550781 173.402344 470.15625 164.660156 448.789062 164.660156 C 427.425781 164.660156 408.03125 173.402344 393.9375 187.496094 C 379.84375 201.589844 371.109375 220.992188 371.109375 242.359375 L 371.109375 1433.414062 C 371.109375 1454.78125 379.847656 1474.183594 393.9375 1488.277344 C 408.03125 1502.371094 427.425781 1511.113281 448.789062 1511.113281 C 470.15625 1511.113281 489.550781 1502.371094 503.640625 1488.277344 C 517.734375 1474.183594 526.472656 1454.78125 526.472656 1433.414062 L 526.472656 1425.28125 L 526.523438 1425.28125 L 526.523438 1425.230469 C 526.574219 1422.296875 528.945312 1419.925781 531.925781 1419.976562 L 532.28125 1419.976562 C 532.433594 1419.976562 532.582031 1419.925781 532.683594 1419.925781 C 569.65625 1419.925781 603.09375 1404.921875 627.289062 1380.722656 C 651.480469 1356.523438 666.480469 1323.027344 666.480469 1286.097656 C 666.480469 1283.320312 666.429688 1280.691406 666.28125 1278.265625 C 666.128906 1275.691406 665.875 1273.0625 665.574219 1270.386719 C 665.320312 1268.0625 666.632812 1265.738281 668.957031 1264.828125 C 706.433594 1250.230469 738.304688 1224.515625 760.679688 1191.828125 C 782.398438 1160.050781 795.078125 1121.605469 795.078125 1080.230469 C 795.078125 1053.910156 789.976562 1028.851562 780.683594 1005.914062 C 771.035156 982.070312 756.84375 960.496094 739.265625 942.359375 C 737.699219 940.746094 737.296875 938.269531 738.355469 936.199219 C 744.617188 924.226562 749.519531 911.394531 752.800781 897.953125 C 755.984375 884.972656 757.648438 871.332031 757.648438 857.234375 C 757.648438 846.171875 756.589844 835.410156 754.621094 825.003906 C 752.597656 814.394531 749.617188 804.191406 745.730469 794.441406 C 744.617188 792.214844 745.226562 789.488281 747.246094 787.871094 C 772.703125 767.816406 793.511719 742.101562 807.804688 712.648438 C 821.542969 684.304688 829.269531 652.480469 829.269531 618.78125 C 829.269531 569.171875 812.503906 523.503906 784.320312 487.128906 C 755.578125 450.046875 715.019531 422.5625 668.300781 410.4375 C 665.523438 409.933594 663.601562 407.40625 663.957031 404.578125 C 664.308594 401.851562 664.5625 399.171875 664.714844 396.546875 C 664.867188 394.019531 664.964844 391.34375 664.964844 388.511719 C 664.964844 351.785156 650.066406 318.542969 626.023438 294.445312 C 601.984375 270.398438 568.746094 255.496094 531.976562 255.496094 C 528.898438 255.445312 526.472656 253.070312 526.472656 250.089844 Z M 526.472656 250.089844 " fill-opacity="1" fill-rule="nonzero"/></g><path fill="#fec868" d="M 566.019531 217.960938 L 566.019531 225.6875 C 642.390625 225.6875 704.363281 287.625 704.363281 364.0625 C 704.363281 369.71875 704.011719 375.328125 703.351562 380.785156 C 798.460938 405.285156 868.71875 491.625 868.71875 594.382812 C 868.71875 664.65625 835.835938 727.300781 784.621094 767.664062 C 792.652344 787.820312 797.097656 809.796875 797.097656 832.835938 C 797.097656 862.1875 789.875 889.871094 777.144531 914.222656 C 812.652344 950.847656 834.523438 1000.761719 834.523438 1055.828125 C 834.523438 1142.117188 780.832031 1215.875 705.019531 1245.429688 C 705.625 1250.785156 705.980469 1256.191406 705.980469 1261.746094 C 705.980469 1338.585938 643.703125 1400.929688 566.828125 1400.929688 C 566.574219 1400.929688 566.273438 1400.929688 566.019531 1400.929688 L 566.019531 1409.0625 C 566.019531 1454.734375 528.644531 1492.066406 483.035156 1492.066406 C 437.375 1492.066406 400.050781 1454.683594 400.050781 1409.0625 L 400.050781 217.960938 C 400.050781 172.289062 437.425781 134.957031 483.035156 134.957031 C 528.644531 134.957031 566.019531 172.289062 566.019531 217.960938 Z M 566.019531 217.960938 " fill-opacity="1" fill-rule="evenodd"/><path fill="#221f20" d="M 571.375 217.960938 L 571.375 220.433594 C 608.902344 221.796875 642.792969 237.613281 667.59375 262.417969 C 693.605469 288.433594 709.667969 324.355469 709.667969 364.011719 C 709.667969 366.789062 709.566406 369.671875 709.414062 372.652344 C 709.3125 374.015625 709.210938 375.378906 709.113281 376.742188 C 756.488281 389.980469 797.550781 418.269531 826.847656 456.109375 C 856.445312 494.300781 874.023438 542.246094 874.023438 594.28125 C 874.023438 629.59375 865.941406 662.988281 851.496094 692.792969 C 837.050781 722.5 816.289062 748.617188 790.984375 769.332031 C 794.523438 778.777344 797.25 788.527344 799.167969 798.53125 C 801.289062 809.644531 802.402344 821.113281 802.402344 832.785156 C 802.402344 847.636719 800.582031 862.136719 797.199219 875.980469 C 794.015625 889.011719 789.421875 901.441406 783.5625 913.210938 C 800.9375 931.753906 814.925781 953.476562 824.625 977.421875 C 834.421875 1001.621094 839.828125 1028.09375 839.828125 1055.777344 C 839.828125 1099.375 826.441406 1139.894531 803.5625 1173.386719 C 780.734375 1206.78125 748.507812 1233.203125 710.675781 1248.8125 C 710.828125 1250.277344 710.929688 1251.746094 710.980469 1253.210938 L 710.980469 1253.308594 C 711.132812 1256.191406 711.234375 1259.019531 711.234375 1261.644531 C 711.234375 1301.558594 695.070312 1337.679688 668.90625 1363.847656 C 643.753906 1389.007812 609.355469 1404.921875 571.273438 1406.132812 L 571.273438 1409.011719 C 571.273438 1433.3125 561.324219 1455.390625 545.3125 1471.402344 C 529.300781 1487.417969 507.226562 1497.371094 482.933594 1497.371094 C 458.640625 1497.371094 436.566406 1487.417969 420.554688 1471.402344 C 404.542969 1455.390625 394.59375 1433.3125 394.59375 1409.011719 L 394.59375 217.960938 C 394.59375 193.660156 404.542969 171.582031 420.554688 155.566406 C 436.566406 139.550781 458.640625 129.601562 482.933594 129.601562 C 507.226562 129.601562 529.300781 139.550781 545.3125 155.566406 C 561.324219 171.582031 571.375 193.660156 571.375 217.960938 Z M 560.667969 225.6875 L 560.667969 217.960938 C 560.667969 196.589844 551.929688 177.191406 537.835938 163.09375 C 523.746094 149 504.347656 140.261719 482.984375 140.261719 C 461.617188 140.261719 442.222656 149 428.132812 163.09375 C 414.039062 177.191406 405.300781 196.589844 405.300781 217.960938 L 405.300781 1409.011719 C 405.300781 1430.382812 414.039062 1449.78125 428.132812 1463.875 C 442.222656 1477.972656 461.617188 1486.710938 482.984375 1486.710938 C 504.347656 1486.710938 523.746094 1477.972656 537.835938 1463.875 C 551.929688 1449.78125 560.667969 1430.382812 560.667969 1409.011719 L 560.667969 1400.878906 L 560.71875 1400.878906 L 560.71875 1400.828125 C 560.765625 1397.898438 563.140625 1395.523438 566.121094 1395.574219 L 566.476562 1395.574219 C 566.625 1395.574219 566.726562 1395.523438 566.878906 1395.523438 C 603.851562 1395.523438 637.289062 1380.570312 661.480469 1356.320312 C 685.675781 1332.121094 700.675781 1298.625 700.675781 1261.695312 C 700.675781 1258.96875 700.625 1256.390625 700.472656 1253.96875 L 700.472656 1253.867188 C 700.324219 1251.289062 700.070312 1248.664062 699.765625 1245.984375 C 699.515625 1243.660156 700.828125 1241.335938 703.152344 1240.425781 C 740.628906 1225.828125 772.5 1200.113281 794.875 1167.425781 C 816.59375 1135.648438 829.269531 1097.203125 829.269531 1055.828125 C 829.269531 1029.507812 824.167969 1004.449219 814.875 981.515625 C 805.230469 957.667969 791.035156 936.097656 773.460938 917.960938 C 771.894531 916.34375 771.488281 913.867188 772.550781 911.796875 C 778.8125 899.824219 783.710938 886.992188 786.996094 873.554688 C 790.175781 860.570312 791.84375 846.929688 791.84375 832.835938 C 791.84375 821.769531 790.785156 811.011719 788.8125 800.601562 C 786.792969 789.992188 783.8125 779.789062 779.925781 770.039062 C 778.8125 767.816406 779.417969 765.085938 781.390625 763.472656 C 806.84375 743.414062 827.65625 717.699219 841.949219 688.246094 C 855.6875 659.90625 863.414062 628.078125 863.414062 594.382812 C 863.414062 544.769531 846.644531 499.101562 818.460938 462.726562 C 789.722656 425.644531 749.164062 398.164062 702.445312 386.039062 C 699.667969 385.53125 697.746094 382.957031 698.101562 380.128906 C 698.453125 377.398438 698.707031 374.671875 698.859375 372.042969 C 699.007812 369.519531 699.109375 366.839844 699.109375 364.011719 C 699.109375 327.285156 684.210938 294.042969 660.167969 269.945312 C 636.074219 245.847656 602.839844 230.992188 566.121094 230.992188 C 563.039062 231.042969 560.667969 228.617188 560.667969 225.6875 Z M 560.667969 225.6875 " fill-opacity="1" fill-rule="nonzero"/><path fill="#fff6d9" d="M 600.164062 193.558594 L 600.164062 201.289062 C 676.582031 201.289062 738.507812 263.226562 738.507812 339.660156 C 738.507812 345.320312 738.152344 350.925781 737.496094 356.382812 C 832.605469 380.886719 902.863281 467.222656 902.863281 569.980469 C 902.863281 640.304688 869.980469 702.898438 818.765625 743.261719 C 826.796875 763.421875 831.242188 785.398438 831.242188 808.433594 C 831.242188 837.785156 824.019531 865.46875 811.289062 889.820312 C 846.796875 926.449219 868.667969 976.359375 868.667969 1031.425781 C 868.667969 1117.714844 814.976562 1191.472656 739.164062 1221.027344 C 739.769531 1226.382812 740.125 1231.789062 740.125 1237.347656 C 740.125 1314.1875 677.847656 1376.527344 600.972656 1376.527344 C 600.71875 1376.527344 600.417969 1376.527344 600.164062 1376.527344 L 600.164062 1384.660156 C 600.164062 1430.332031 562.839844 1467.664062 517.179688 1467.664062 C 471.519531 1467.664062 434.191406 1430.332031 434.191406 1384.660156 L 434.191406 193.558594 C 434.191406 147.886719 471.519531 110.554688 517.179688 110.554688 C 562.839844 110.554688 600.164062 147.886719 600.164062 193.558594 Z M 600.164062 193.558594 " fill-opacity="1" fill-rule="evenodd"/><g clip-path="url(#9f53d4ba49)"><path fill="#221f20" d="M 605.519531 193.558594 L 605.519531 196.035156 C 643.046875 197.398438 676.9375 213.210938 701.738281 238.015625 C 727.75 264.03125 743.8125 299.953125 743.8125 339.609375 C 743.8125 342.390625 743.710938 345.269531 743.558594 348.25 C 743.457031 349.613281 743.355469 350.976562 743.253906 352.339844 C 790.632812 365.578125 831.695312 393.867188 860.992188 431.757812 C 890.589844 469.953125 908.164062 517.894531 908.164062 569.929688 C 908.164062 605.242188 900.085938 638.636719 885.589844 668.445312 C 871.195312 698.148438 850.433594 724.269531 825.078125 744.980469 C 828.613281 754.429688 831.34375 764.179688 833.261719 774.179688 C 835.382812 785.296875 836.496094 796.761719 836.496094 808.433594 C 836.496094 823.285156 834.675781 837.734375 831.292969 851.628906 C 828.109375 864.664062 823.511719 877.089844 817.65625 888.859375 C 835.03125 907.402344 849.019531 929.125 858.71875 953.070312 C 868.515625 977.269531 873.921875 1003.742188 873.921875 1031.425781 C 873.921875 1075.027344 860.535156 1115.542969 837.65625 1149.039062 C 814.824219 1182.429688 782.601562 1208.851562 744.769531 1224.464844 C 744.871094 1225.929688 745.023438 1227.394531 745.074219 1228.859375 C 745.226562 1231.789062 745.324219 1234.617188 745.324219 1237.296875 C 745.324219 1277.207031 729.164062 1313.328125 703 1339.496094 C 677.847656 1364.65625 643.449219 1380.570312 605.367188 1381.730469 L 605.367188 1384.609375 C 605.367188 1408.910156 595.417969 1430.988281 579.40625 1447.003906 C 563.394531 1463.019531 541.320312 1472.96875 517.027344 1472.96875 C 492.730469 1472.96875 470.660156 1463.019531 454.648438 1447.003906 C 438.636719 1430.988281 428.6875 1408.910156 428.6875 1384.609375 L 428.6875 193.558594 C 428.6875 169.257812 438.636719 147.179688 454.648438 131.167969 C 470.8125 115.152344 492.882812 105.199219 517.179688 105.199219 C 541.472656 105.199219 563.546875 115.152344 579.558594 131.167969 C 595.617188 147.128906 605.519531 169.257812 605.519531 193.558594 Z M 594.808594 201.289062 L 594.808594 193.558594 C 594.808594 172.1875 586.074219 152.789062 571.980469 138.695312 C 557.886719 124.597656 538.492188 115.859375 517.128906 115.859375 C 495.761719 115.859375 476.367188 124.597656 462.277344 138.695312 C 448.183594 152.789062 439.445312 172.1875 439.445312 193.558594 L 439.445312 1384.609375 C 439.445312 1405.980469 448.183594 1425.378906 462.277344 1439.476562 C 476.367188 1453.570312 495.761719 1462.308594 517.128906 1462.308594 C 538.492188 1462.308594 557.886719 1453.570312 571.980469 1439.476562 C 586.074219 1425.378906 594.808594 1405.980469 594.808594 1384.609375 L 594.808594 1376.476562 L 594.859375 1376.476562 L 594.859375 1376.425781 C 594.910156 1373.496094 597.285156 1371.121094 600.265625 1371.171875 L 600.617188 1371.171875 C 600.769531 1371.171875 600.871094 1371.171875 601.023438 1371.171875 C 637.945312 1371.171875 671.433594 1356.167969 695.625 1331.96875 C 719.820312 1307.769531 734.820312 1274.277344 734.820312 1237.347656 C 734.820312 1234.566406 734.71875 1231.992188 734.566406 1229.515625 C 734.417969 1226.9375 734.214844 1224.3125 733.859375 1221.632812 C 733.609375 1219.308594 734.921875 1216.988281 737.246094 1216.078125 C 774.671875 1201.476562 806.59375 1175.761719 828.96875 1143.078125 C 850.636719 1111.300781 863.363281 1072.855469 863.363281 1031.476562 C 863.363281 1005.15625 858.261719 980.097656 848.96875 957.164062 C 839.324219 933.316406 825.128906 911.796875 807.550781 893.609375 C 805.988281 891.992188 805.582031 889.519531 806.644531 887.445312 C 812.90625 875.472656 817.804688 862.640625 821.089844 849.203125 C 824.269531 836.21875 825.9375 822.578125 825.9375 808.484375 C 825.9375 797.421875 824.878906 786.660156 822.90625 776.253906 C 820.886719 765.644531 817.90625 755.4375 814.019531 745.6875 C 812.90625 743.464844 813.511719 740.738281 815.480469 739.171875 C 840.9375 719.0625 861.75 693.351562 876.042969 663.945312 C 889.78125 635.605469 897.507812 603.777344 897.507812 570.082031 C 897.507812 520.472656 880.738281 474.800781 852.554688 438.425781 C 823.816406 401.34375 783.257812 373.863281 736.539062 361.738281 C 733.757812 361.234375 731.839844 358.65625 732.195312 355.828125 C 732.546875 353.097656 732.75 350.421875 732.902344 347.792969 C 733.050781 345.269531 733.152344 342.589844 733.152344 339.761719 C 733.152344 303.035156 718.253906 269.792969 694.210938 245.695312 C 670.117188 221.597656 636.882812 206.742188 600.164062 206.742188 C 597.234375 206.59375 594.808594 204.21875 594.808594 201.289062 Z M 594.808594 201.289062 " fill-opacity="1" fill-rule="nonzero"/></g><path fill="#221f20" d="M 464.246094 246.65625 C 464.246094 243.722656 466.621094 241.300781 469.597656 241.300781 C 472.527344 241.300781 474.953125 243.722656 474.953125 246.65625 L 474.953125 391.546875 C 474.953125 394.476562 472.578125 396.898438 469.597656 396.898438 C 466.621094 396.898438 464.246094 394.527344 464.246094 391.546875 Z M 464.246094 246.65625 " fill-opacity="1" fill-rule="nonzero"/><path fill="#221f20" d="M 496.773438 319.90625 C 496.773438 316.925781 499.199219 314.554688 502.128906 314.554688 C 505.054688 314.554688 507.480469 316.925781 507.480469 319.90625 L 507.480469 464.75 C 507.480469 467.679688 505.105469 470.101562 502.128906 470.101562 C 499.148438 470.101562 496.773438 467.730469 496.773438 464.75 Z M 496.773438 319.90625 " fill-opacity="1" fill-rule="nonzero"/><path fill="#221f20" d="M 464.246094 430.546875 C 464.246094 427.617188 466.621094 425.191406 469.597656 425.191406 C 472.527344 425.191406 474.953125 427.566406 474.953125 430.546875 L 474.953125 701.585938 C 474.953125 704.515625 472.578125 706.941406 469.597656 706.941406 C 466.621094 706.941406 464.246094 704.566406 464.246094 701.585938 Z M 464.246094 430.546875 " fill-opacity="1" fill-rule="nonzero"/></svg>