<svg xmlns="http://www.w3.org/2000/svg" xmlns:xlink="http://www.w3.org/1999/xlink" width="1587" zoomAndPan="magnify" viewBox="0 0 1190.25 1683.749949" height="2245" preserveAspectRatio="xMidYMid meet" version="1.0"><defs><clipPath id="3aa97c613a"><path d="M 68.503906 315.304688 L 1093 315.304688 L 1093 1340 L 68.503906 1340 Z M 68.503906 315.304688 " clip-rule="nonzero"/></clipPath></defs><path fill="#110804" d="M 609.0625 1367.773438 C 598.972656 1367.773438 590.300781 1360.609375 588.402344 1350.703125 C 555.1875 1177.621094 524.753906 1071.386719 459.148438 1005.78125 C 393.542969 940.171875 287.308594 909.738281 114.226562 876.527344 C 104.316406 874.625 97.152344 865.957031 97.152344 855.867188 C 97.152344 845.777344 104.316406 837.109375 114.226562 835.207031 C 287.308594 801.992188 393.539062 771.554688 459.148438 705.953125 C 524.753906 640.34375 555.1875 534.113281 588.402344 361.03125 C 590.300781 351.121094 598.972656 343.957031 609.0625 343.957031 C 619.152344 343.957031 627.820312 351.121094 629.71875 361.03125 C 662.933594 534.109375 693.371094 640.34375 758.976562 705.953125 C 824.582031 771.558594 930.816406 801.992188 1103.898438 835.207031 C 1113.804688 837.109375 1120.96875 845.777344 1120.96875 855.867188 C 1120.96875 865.957031 1113.804688 874.625 1103.898438 876.527344 C 930.816406 909.738281 824.582031 940.175781 758.976562 1005.78125 C 693.371094 1071.386719 662.933594 1177.621094 629.71875 1350.703125 C 627.820312 1360.609375 619.152344 1367.773438 609.0625 1367.773438 Z M 609.0625 1367.773438 " fill-opacity="1" fill-rule="nonzero"/><g clip-path="url(#3aa97c613a)"><path fill="#110804" d="M 580.414062 1339.125 C 570.324219 1339.125 561.652344 1331.960938 559.753906 1322.054688 C 526.539062 1148.972656 496.105469 1042.738281 430.5 977.132812 C 364.894531 911.523438 258.660156 881.089844 85.578125 847.878906 C 75.667969 845.976562 68.503906 837.308594 68.503906 827.21875 C 68.503906 817.128906 75.667969 808.460938 85.578125 806.558594 C 258.660156 773.34375 364.890625 742.90625 430.5 677.304688 C 496.105469 611.695312 526.539062 505.464844 559.753906 332.382812 C 561.652344 322.472656 570.324219 315.308594 580.414062 315.308594 C 590.503906 315.308594 599.171875 322.472656 601.070312 332.382812 C 634.285156 505.460938 664.722656 611.695312 730.328125 677.304688 C 795.933594 742.910156 902.167969 773.34375 1075.25 806.558594 C 1085.15625 808.460938 1092.320312 817.128906 1092.320312 827.21875 C 1092.320312 837.308594 1085.15625 845.976562 1075.25 847.878906 C 902.167969 881.089844 795.933594 911.527344 730.328125 977.132812 C 664.722656 1042.738281 634.285156 1148.972656 601.070312 1322.054688 C 599.171875 1331.960938 590.503906 1339.125 580.414062 1339.125 Z M 580.414062 1339.125 " fill-opacity="1" fill-rule="nonzero"/></g><path fill="#ffb83b" d="M 1071.285156 827.214844 C 706.988281 897.121094 650.320312 953.789062 580.414062 1318.085938 C 510.503906 953.789062 453.835938 897.121094 89.539062 827.214844 C 453.835938 757.308594 510.503906 700.636719 580.414062 336.34375 C 650.320312 700.636719 706.988281 757.308594 1071.285156 827.214844 Z M 1071.285156 827.214844 " fill-opacity="1" fill-rule="nonzero"/></svg>