<svg xmlns="http://www.w3.org/2000/svg" xmlns:xlink="http://www.w3.org/1999/xlink" width="1587" zoomAndPan="magnify" viewBox="0 0 1190.25 1683.749949" height="2245" preserveAspectRatio="xMidYMid meet" version="1.0"><defs><clipPath id="4faa3146fa"><path d="M 368.855469 84 L 788 84 L 788 1637.550781 L 368.855469 1637.550781 Z M 368.855469 84 " clip-rule="nonzero"/></clipPath><clipPath id="8dfe03eb0b"><path d="M 401 51 L 820.707031 51 L 820.707031 1605 L 401 1605 Z M 401 51 " clip-rule="nonzero"/></clipPath></defs><path fill="#ffeacc" d="M 375.386719 152.625 C 375.386719 136.957031 381.367188 121.289062 393.328125 109.332031 C 417.246094 85.414062 456.003906 85.414062 479.921875 109.332031 L 763.347656 392.738281 C 774.808594 404.199219 781.285156 419.8125 781.285156 436.03125 C 781.285156 452.253906 774.808594 467.867188 763.347656 479.328125 L 523.21875 719.441406 L 763.347656 959.554688 C 774.808594 971.015625 781.285156 986.625 781.285156 1002.847656 C 781.285156 1019.070312 774.808594 1034.683594 763.347656 1046.144531 L 523.21875 1286.257812 L 763.347656 1526.367188 C 787.265625 1550.285156 787.265625 1589.039062 763.347656 1612.957031 C 739.425781 1636.875 700.671875 1636.875 676.75 1612.957031 L 393.273438 1329.550781 C 381.8125 1318.089844 375.332031 1302.476562 375.332031 1286.257812 C 375.332031 1270.035156 381.8125 1254.421875 393.273438 1242.960938 L 633.398438 1002.847656 L 393.273438 762.734375 C 381.8125 751.273438 375.332031 735.660156 375.332031 719.441406 C 375.332031 703.21875 381.8125 687.605469 393.273438 676.144531 L 633.398438 436.03125 L 393.273438 195.917969 C 381.367188 183.960938 375.386719 168.292969 375.386719 152.625 Z M 375.386719 152.625 " fill-opacity="1" fill-rule="nonzero"/><g clip-path="url(#4faa3146fa)"><path fill="#221f20" d="M 368.855469 1286.257812 C 368.855469 1268.152344 375.886719 1251.15625 388.675781 1238.367188 L 624.207031 1002.847656 L 388.675781 767.332031 C 375.886719 754.542969 368.855469 737.488281 368.855469 719.441406 C 368.855469 701.335938 375.886719 684.339844 388.675781 671.550781 L 624.207031 436.03125 L 388.675781 200.515625 C 375.886719 187.726562 368.855469 170.671875 368.855469 152.625 C 368.855469 134.519531 375.886719 117.523438 388.675781 104.734375 C 415.085938 78.328125 458.105469 78.328125 484.515625 104.734375 L 767.941406 388.144531 C 780.730469 400.933594 787.761719 417.984375 787.761719 436.03125 C 787.761719 454.136719 780.730469 471.132812 767.941406 483.921875 L 532.410156 719.441406 L 767.941406 954.957031 C 780.730469 967.746094 787.761719 984.800781 787.761719 1002.847656 C 787.761719 1020.953125 780.730469 1037.949219 767.941406 1050.738281 L 532.410156 1286.257812 L 767.941406 1521.773438 C 780.730469 1534.5625 787.761719 1551.613281 787.761719 1569.664062 C 787.761719 1587.769531 780.730469 1604.765625 767.941406 1617.554688 C 755.152344 1630.34375 738.097656 1637.375 720.046875 1637.375 C 701.945312 1637.375 684.945312 1630.34375 672.15625 1617.554688 L 388.730469 1334.144531 C 375.886719 1321.410156 368.855469 1304.359375 368.855469 1286.257812 Z M 642.644531 1002.847656 L 397.867188 1247.613281 C 387.515625 1257.964844 381.867188 1271.695312 381.867188 1286.3125 C 381.867188 1300.925781 387.570312 1314.65625 397.867188 1325.011719 L 681.292969 1608.417969 C 691.644531 1618.769531 705.375 1624.417969 719.992188 1624.417969 C 734.609375 1624.417969 748.339844 1618.714844 758.695312 1608.417969 C 769.046875 1598.066406 774.695312 1584.335938 774.695312 1569.71875 C 774.695312 1555.101562 768.992188 1541.371094 758.695312 1531.019531 L 513.972656 1286.257812 L 758.695312 1041.546875 C 769.046875 1031.195312 774.695312 1017.464844 774.695312 1002.847656 C 774.695312 988.230469 768.992188 974.5 758.695312 964.148438 L 513.972656 719.441406 L 758.695312 474.675781 C 769.046875 464.324219 774.695312 450.59375 774.695312 435.976562 C 774.695312 421.359375 768.992188 407.632812 758.695312 397.277344 L 475.269531 113.871094 C 453.953125 92.554688 419.238281 92.554688 397.921875 113.871094 C 387.570312 124.222656 381.921875 137.953125 381.921875 152.570312 C 381.921875 167.183594 387.625 180.914062 397.921875 191.269531 L 642.699219 436.03125 L 397.921875 680.796875 C 387.570312 691.148438 381.921875 704.878906 381.921875 719.496094 C 381.921875 734.113281 387.625 747.84375 397.921875 758.195312 Z M 642.644531 1002.847656 " fill-opacity="1" fill-rule="nonzero"/></g><path fill="#f25151" d="M 408.332031 119.628906 C 408.332031 103.960938 414.3125 88.292969 426.269531 76.332031 C 450.1875 52.417969 488.945312 52.417969 512.863281 76.332031 L 796.34375 359.742188 C 807.804688 371.203125 814.285156 386.8125 814.285156 403.035156 C 814.285156 419.257812 807.804688 434.871094 796.34375 446.332031 L 556.21875 686.445312 L 796.34375 926.558594 C 807.804688 938.015625 814.285156 953.628906 814.285156 969.851562 C 814.285156 986.074219 807.804688 1001.683594 796.34375 1013.144531 L 556.21875 1253.257812 L 796.34375 1493.371094 C 820.261719 1517.289062 820.261719 1556.042969 796.34375 1579.960938 C 772.425781 1603.878906 733.667969 1603.878906 709.75 1579.960938 L 426.328125 1296.554688 C 414.867188 1285.09375 408.386719 1269.480469 408.386719 1253.257812 C 408.386719 1237.039062 414.867188 1221.425781 426.328125 1209.964844 L 666.453125 969.851562 L 426.328125 729.738281 C 414.867188 718.277344 408.386719 702.664062 408.386719 686.445312 C 408.386719 670.222656 414.867188 654.609375 426.328125 643.148438 L 666.453125 403.035156 L 426.328125 162.921875 C 414.3125 150.964844 408.332031 135.296875 408.332031 119.628906 Z M 408.332031 119.628906 " fill-opacity="1" fill-rule="nonzero"/><g clip-path="url(#8dfe03eb0b)"><path fill="#221f20" d="M 401.796875 1253.316406 C 401.796875 1235.210938 408.832031 1218.214844 421.621094 1205.425781 L 657.152344 969.90625 L 421.621094 734.390625 C 408.832031 721.601562 401.796875 704.546875 401.796875 686.5 C 401.796875 668.394531 408.832031 651.398438 421.621094 638.609375 L 657.152344 403.089844 L 421.621094 167.574219 C 408.832031 154.785156 401.796875 137.730469 401.796875 119.683594 C 401.796875 101.578125 408.832031 84.582031 421.621094 71.792969 C 448.03125 45.386719 491.050781 45.386719 517.460938 71.792969 L 800.882812 355.203125 C 813.675781 367.992188 820.707031 385.042969 820.707031 403.089844 C 820.707031 421.195312 813.675781 438.191406 800.882812 450.980469 L 565.351562 686.5 L 800.882812 922.015625 C 813.675781 934.804688 820.707031 951.859375 820.707031 969.90625 C 820.707031 988.011719 813.675781 1005.007812 800.882812 1017.796875 L 565.351562 1253.316406 L 800.882812 1488.832031 C 813.675781 1501.621094 820.707031 1518.671875 820.707031 1536.722656 C 820.707031 1554.828125 813.675781 1571.824219 800.882812 1584.613281 C 788.09375 1597.402344 771.042969 1604.433594 752.992188 1604.433594 C 734.886719 1604.433594 717.890625 1597.402344 705.101562 1584.613281 L 421.675781 1301.203125 C 408.886719 1288.414062 401.796875 1271.417969 401.796875 1253.316406 Z M 675.644531 969.851562 L 430.867188 1214.613281 C 420.511719 1224.96875 414.867188 1238.699219 414.867188 1253.3125 C 414.867188 1267.929688 420.566406 1281.660156 430.867188 1292.015625 L 714.289062 1575.421875 C 724.644531 1585.773438 738.375 1591.421875 752.992188 1591.421875 C 767.609375 1591.421875 781.339844 1585.71875 791.695312 1575.421875 C 802.046875 1565.066406 807.695312 1551.339844 807.695312 1536.722656 C 807.695312 1522.105469 801.992188 1508.375 791.695312 1498.023438 L 546.914062 1253.257812 L 791.695312 1008.550781 C 802.046875 998.199219 807.695312 984.46875 807.695312 969.851562 C 807.695312 955.234375 801.992188 941.503906 791.695312 931.152344 L 546.914062 686.386719 L 791.695312 441.625 C 802.046875 431.269531 807.695312 417.542969 807.695312 402.925781 C 807.695312 388.308594 801.992188 374.578125 791.695312 364.226562 L 508.269531 80.816406 C 486.953125 59.503906 452.238281 59.503906 430.921875 80.816406 C 420.566406 91.171875 414.921875 104.902344 414.921875 119.515625 C 414.921875 134.132812 420.625 147.863281 430.921875 158.214844 L 675.644531 403.035156 L 430.867188 647.800781 C 420.511719 658.152344 414.867188 671.882812 414.867188 686.5 C 414.867188 701.113281 420.566406 714.84375 430.867188 725.199219 Z M 675.644531 969.851562 " fill-opacity="1" fill-rule="nonzero"/></g></svg>