<svg xmlns="http://www.w3.org/2000/svg" xmlns:xlink="http://www.w3.org/1999/xlink" width="1587" zoomAndPan="magnify" viewBox="0 0 1190.25 1683.749949" height="2245" preserveAspectRatio="xMidYMid meet" version="1.0"><path fill="#000000" d="M 1098.382812 796.105469 C 1130.070312 758.664062 1137.773438 709.246094 1119.007812 663.933594 C 1106.828125 634.527344 1085.535156 611.789062 1058.730469 598.328125 C 1038.441406 558.660156 1000.496094 533.132812 955.273438 529.367188 C 941.722656 528.234375 928.878906 524.761719 917.125 519.378906 C 911.742188 507.628906 908.273438 494.800781 907.140625 481.230469 C 903.371094 436.007812 877.847656 398.066406 838.175781 377.773438 C 824.714844 350.96875 801.996094 329.675781 772.589844 317.5 C 727.277344 298.730469 677.859375 306.433594 640.417969 338.121094 C 597.886719 374.117188 536.144531 374.117188 493.597656 338.121094 C 456.171875 306.453125 406.753906 298.730469 361.441406 317.515625 C 316.128906 336.285156 286.648438 376.679688 282.5625 425.558594 C 277.941406 481.101562 234.28125 524.742188 178.753906 529.367188 C 129.878906 533.429688 89.484375 562.910156 70.714844 608.242188 C 51.945312 653.558594 59.652344 702.972656 91.339844 740.417969 C 127.335938 782.945312 127.335938 844.6875 91.339844 887.238281 C 59.652344 924.679688 51.945312 974.097656 70.714844 1019.410156 C 82.894531 1048.816406 104.183594 1071.554688 130.992188 1084.996094 C 151.28125 1124.667969 189.226562 1150.191406 234.445312 1153.960938 C 248 1155.09375 260.84375 1158.5625 272.59375 1163.945312 C 277.980469 1175.699219 281.449219 1188.523438 282.582031 1202.09375 C 286.351562 1247.316406 311.875 1285.261719 351.546875 1305.550781 C 365.003906 1332.355469 387.726562 1353.648438 417.132812 1365.828125 C 433.46875 1372.601562 450.34375 1375.925781 466.996094 1375.925781 C 496.527344 1375.925781 525.359375 1365.476562 549.304688 1345.203125 C 591.835938 1309.207031 653.578125 1309.207031 696.125 1345.203125 C 733.570312 1376.890625 782.96875 1384.59375 828.300781 1365.828125 C 873.613281 1347.058594 903.09375 1306.664062 907.175781 1257.785156 C 911.800781 1202.261719 955.460938 1158.601562 1010.984375 1153.976562 C 1059.863281 1149.914062 1100.257812 1120.433594 1119.027344 1075.101562 C 1137.792969 1029.769531 1130.089844 980.371094 1098.402344 942.925781 C 1062.40625 900.398438 1062.40625 838.65625 1098.402344 796.105469 Z M 179.980469 1083.453125 C 136.746094 1079.855469 101.03125 1053.789062 84.433594 1013.691406 C 67.835938 973.613281 74.652344 929.914062 102.679688 896.796875 C 143.390625 848.699219 143.390625 778.878906 102.679688 730.800781 C 74.652344 697.683594 67.835938 653.984375 84.433594 613.90625 C 101.03125 573.824219 136.765625 547.742188 179.980469 544.140625 C 242.761719 538.925781 292.144531 489.546875 297.359375 426.765625 C 300.960938 383.527344 327.023438 347.8125 367.101562 331.214844 C 407.183594 314.621094 450.882812 321.433594 484 349.464844 C 532.097656 390.175781 601.914062 390.175781 649.996094 349.464844 C 683.113281 321.433594 726.8125 314.621094 766.890625 331.214844 C 806.96875 347.8125 833.050781 383.546875 836.652344 426.765625 C 841.886719 489.546875 891.25 538.925781 954.03125 544.140625 C 997.265625 547.742188 1032.984375 573.824219 1049.578125 613.90625 C 1066.175781 653.984375 1059.363281 697.683594 1031.332031 730.800781 C 990.621094 778.898438 990.621094 848.71875 1031.332031 896.796875 C 1059.363281 929.914062 1066.175781 973.613281 1049.578125 1013.691406 C 1032.984375 1053.773438 997.246094 1079.855469 954.03125 1083.453125 C 891.25 1088.691406 841.871094 1138.050781 836.652344 1200.832031 C 833.050781 1244.066406 806.988281 1279.785156 766.890625 1296.378906 C 726.8125 1312.976562 683.113281 1306.164062 649.996094 1278.132812 C 625.957031 1257.785156 596.476562 1247.59375 566.996094 1247.59375 C 537.519531 1247.59375 508.039062 1257.769531 484 1278.132812 C 450.882812 1306.164062 407.183594 1312.976562 367.101562 1296.378906 C 327.023438 1279.785156 300.941406 1244.050781 297.359375 1200.832031 C 292.125 1138.050781 242.761719 1088.671875 179.980469 1083.453125 Z M 179.980469 1083.453125 " fill-opacity="1" fill-rule="nonzero"/><path fill="#f4c811" d="M 179.980469 1083.453125 C 136.746094 1079.855469 101.03125 1053.789062 84.433594 1013.691406 C 67.835938 973.613281 74.652344 929.914062 102.679688 896.796875 C 143.390625 848.699219 143.390625 778.878906 102.679688 730.800781 C 74.652344 697.683594 67.835938 653.984375 84.433594 613.90625 C 101.03125 573.824219 136.765625 547.742188 179.980469 544.140625 C 242.761719 538.925781 292.144531 489.546875 297.359375 426.765625 C 300.960938 383.527344 327.023438 347.8125 367.101562 331.214844 C 407.183594 314.621094 450.882812 321.433594 484 349.464844 C 532.097656 390.175781 601.914062 390.175781 649.996094 349.464844 C 683.113281 321.433594 726.8125 314.621094 766.890625 331.214844 C 806.96875 347.8125 833.050781 383.546875 836.652344 426.765625 C 841.886719 489.546875 891.25 538.925781 954.03125 544.140625 C 997.265625 547.742188 1032.984375 573.824219 1049.578125 613.90625 C 1066.175781 653.984375 1059.363281 697.683594 1031.332031 730.800781 C 990.621094 778.898438 990.621094 848.71875 1031.332031 896.796875 C 1059.363281 929.914062 1066.175781 973.613281 1049.578125 1013.691406 C 1032.984375 1053.773438 997.246094 1079.855469 954.03125 1083.453125 C 891.25 1088.691406 841.871094 1138.050781 836.652344 1200.832031 C 833.050781 1244.066406 806.988281 1279.785156 766.890625 1296.378906 C 726.8125 1312.976562 683.113281 1306.164062 649.996094 1278.132812 C 625.957031 1257.785156 596.476562 1247.59375 566.996094 1247.59375 C 537.519531 1247.59375 508.039062 1257.769531 484 1278.132812 C 450.882812 1306.164062 407.183594 1312.976562 367.101562 1296.378906 C 327.023438 1279.785156 300.941406 1244.050781 297.359375 1200.832031 C 292.125 1138.050781 242.761719 1088.671875 179.980469 1083.453125 Z M 179.980469 1083.453125 " fill-opacity="1" fill-rule="nonzero"/></svg>